ComicNeue-Angular_Bold.ufo
<glyph name="exclam" format="1">
  <advance width="211"/>
  <unicode hex="0021"/>
  <outline>
    <contour>
      <point x="144" y="179" type="line"/>
      <point x="144" y="679" type="line"/>
      <point x="50" y="662" type="line"/>
      <point x="50" y="160" type="line"/>
    </contour>
    <contour>
      <point x="149" y="134" type="line"/>
      <point x="51" y="117" type="line"/>
      <point x="41" y="-5" type="line"/>
      <point x="139" y="12" type="line"/>
    </contour>
  </outline>
</glyph>
<glyph name="percent" format="1">
  <advance width="754"/>
  <unicode hex="0025"/>
  <outline>
    <contour>
      <point x="208" y="384" type="curve" smooth="yes"/>
      <point x="289" y="384"/>
      <point x="355" y="449"/>
      <point x="355" y="530" type="curve" smooth="yes"/>
      <point x="355" y="611"/>
      <point x="289" y="677"/>
      <point x="208" y="677" type="curve" smooth="yes"/>
      <point x="128" y="677"/>
      <point x="62" y="611"/>
      <point x="62" y="530" type="curve" smooth="yes"/>
      <point x="62" y="449"/>
      <point x="128" y="384"/>
    </contour>
    <contour>
      <point x="208" y="582" type="curve" smooth="yes"/>
      <point x="237" y="582"/>
      <point x="260" y="558"/>
      <point x="260" y="530" type="curve" smooth="yes"/>
      <point x="260" y="502"/>
      <point x="237" y="478"/>
      <point x="208" y="478" type="curve" smooth="yes"/>
      <point x="180" y="478"/>
      <point x="157" y="502"/>
      <point x="157" y="530" type="curve" smooth="yes"/>
      <point x="157" y="558"/>
      <point x="180" y="582"/>
    </contour>
    <contour>
      <point x="505" y="-7" type="curve" smooth="yes"/>
      <point x="586" y="-7"/>
      <point x="651" y="58"/>
      <point x="651" y="139" type="curve" smooth="yes"/>
      <point x="651" y="220"/>
      <point x="586" y="286"/>
      <point x="505" y="286" type="curve" smooth="yes"/>
      <point x="424" y="286"/>
      <point x="359" y="220"/>
      <point x="359" y="139" type="curve" smooth="yes"/>
      <point x="359" y="58"/>
      <point x="424" y="-7"/>
    </contour>
    <contour>
      <point x="505" y="191" type="curve" smooth="yes"/>
      <point x="533" y="191"/>
      <point x="557" y="167"/>
      <point x="557" y="139" type="curve" smooth="yes"/>
      <point x="557" y="111"/>
      <point x="533" y="87"/>
      <point x="505" y="87" type="curve" smooth="yes"/>
      <point x="477" y="87"/>
      <point x="453" y="111"/>
      <point x="453" y="139" type="curve" smooth="yes"/>
      <point x="453" y="167"/>
      <point x="477" y="191"/>
    </contour>
    <contour>
      <point x="493" y="672" type="line"/>
      <point x="123" y="0" type="line"/>
      <point x="225" y="0" type="line"/>
      <point x="595" y="672" type="line"/>
    </contour>
  </outline>
</glyph>
<glyph name="quotesingle" format="1">
  <advance width="228"/>
  <unicode hex="0027"/>
  <outline>
    <contour>
      <point x="154" y="467" type="line"/>
      <point x="154" y="678" type="line"/>
      <point x="60" y="660" type="line"/>
      <point x="60" y="450" type="line"/>
    </contour>
  </outline>
</glyph>
<glyph name="parenleft" format="1">
  <advance width="403"/>
  <unicode hex="0028"/>
  <outline>
    <contour>
      <point x="322" y="-48" type="line"/>
      <point x="225" y="45"/>
      <point x="153" y="208"/>
      <point x="153" y="343" type="curve" smooth="yes"/>
      <point x="153" y="485"/>
      <point x="232" y="627"/>
      <point x="337" y="718" type="curve"/>
      <point x="280" y="792" type="line"/>
      <point x="143" y="678"/>
      <point x="58" y="503"/>
      <point x="58" y="343" type="curve" smooth="yes"/>
      <point x="58" y="197"/>
      <point x="129" y="6"/>
      <point x="257" y="-116" type="curve"/>
    </contour>
  </outline>
</glyph>
<glyph name="parenright" format="1">
  <advance width="403"/>
  <unicode hex="0029"/>
  <outline>
    <contour>
      <point x="70" y="724" type="curve"/>
      <point x="135" y="792" type="line"/>
      <point x="263" y="670"/>
      <point x="334" y="479"/>
      <point x="334" y="333" type="curve" smooth="yes"/>
      <point x="334" y="173"/>
      <point x="249" y="-2"/>
      <point x="112" y="-116" type="curve"/>
      <point x="55" y="-42" type="line"/>
      <point x="160" y="49"/>
      <point x="239" y="191"/>
      <point x="239" y="333" type="curve" smooth="yes"/>
      <point x="239" y="468"/>
      <point x="167" y="631"/>
    </contour>
  </outline>
</glyph>
<glyph name="comma" format="1">
  <advance width="343"/>
  <unicode hex="002C"/>
  <outline>
    <contour>
      <point x="164" y="125" type="line"/>
      <point x="78" y="37" type="line"/>
      <point x="120" y="14" type="line"/>
      <point x="71" y="-73" type="line"/>
      <point x="156" y="-121" type="line"/>
      <point x="263" y="69" type="line"/>
    </contour>
  </outline>
</glyph>
<glyph name="hyphen" format="1">
  <advance width="468"/>
  <unicode hex="002D"/>
  <outline>
    <contour>
      <point x="372" y="203" type="line"/>
      <point x="60" y="203" type="line"/>
      <point x="77" y="297" type="line"/>
      <point x="390" y="297" type="line"/>
    </contour>
  </outline>
</glyph>
<glyph name="period" format="1">
  <advance width="248"/>
  <unicode hex="002E"/>
  <outline>
    <contour>
      <point x="181" y="133" type="line"/>
      <point x="169" y="12" type="line"/>
      <point x="54" y="-4" type="line"/>
      <point x="68" y="118" type="line"/>
    </contour>
  </outline>
</glyph>
<glyph name="zero" format="1">
  <advance width="640"/>
  <unicode hex="0030"/>
  <outline>
    <contour>
      <point x="296" y="-3" type="curve" smooth="yes"/>
      <point x="433" y="-3"/>
      <point x="545" y="160"/>
      <point x="545" y="348" type="curve" smooth="yes"/>
      <point x="545" y="520"/>
      <point x="451" y="669"/>
      <point x="317" y="669" type="curve" smooth="yes"/>
      <point x="177" y="669"/>
      <point x="67" y="503"/>
      <point x="67" y="317" type="curve" smooth="yes"/>
      <point x="67" y="147"/>
      <point x="162" y="-3"/>
    </contour>
    <contour>
      <point x="317" y="574" type="curve" smooth="yes"/>
      <point x="394" y="574"/>
      <point x="452" y="467"/>
      <point x="452" y="346" type="curve" smooth="yes"/>
      <point x="452" y="208"/>
      <point x="379" y="93"/>
      <point x="296" y="93" type="curve" smooth="yes"/>
      <point x="217" y="93"/>
      <point x="161" y="201"/>
      <point x="161" y="319" type="curve" smooth="yes"/>
      <point x="161" y="458"/>
      <point x="233" y="574"/>
    </contour>
  </outline>
</glyph>
<glyph name="two" format="1">
  <advance width="550"/>
  <unicode hex="0032"/>
  <outline>
    <contour>
      <point x="159" y="95" type="line"/>
      <point x="169" y="169"/>
      <point x="209" y="204"/>
      <point x="280" y="251" type="curve" smooth="yes"/>
      <point x="370" y="310"/>
      <point x="460" y="386"/>
      <point x="460" y="487" type="curve" smooth="yes"/>
      <point x="460" y="556"/>
      <point x="415" y="658"/>
      <point x="266" y="658" type="curve" smooth="yes"/>
      <point x="157" y="658"/>
      <point x="81" y="574"/>
      <point x="53" y="537" type="curve"/>
      <point x="119" y="461" type="line"/>
      <point x="127" y="475"/>
      <point x="189" y="564"/>
      <point x="266" y="564" type="curve" smooth="yes"/>
      <point x="306" y="564"/>
      <point x="365" y="544"/>
      <point x="365" y="487" type="curve" smooth="yes"/>
      <point x="365" y="441"/>
      <point x="324" y="395"/>
      <point x="228" y="330" type="curve" smooth="yes"/>
      <point x="119" y="256"/>
      <point x="61" y="200"/>
      <point x="61" y="47" type="curve" smooth="yes"/>
      <point x="61" y="0" type="line"/>
      <point x="456" y="0" type="line"/>
      <point x="473" y="95" type="line"/>
    </contour>
  </outline>
</glyph>
<glyph name="four" format="1">
  <advance width="544"/>
  <unicode hex="0034"/>
  <outline>
    <contour>
      <point x="407" y="13" type="line"/>
      <point x="314" y="-5" type="line"/>
      <point x="314" y="152" type="line"/>
      <point x="16" y="158" type="line"/>
      <point x="407" y="716" type="line"/>
      <point x="407" y="244" type="line"/>
      <point x="472" y="243" type="line"/>
      <point x="454" y="150" type="line"/>
      <point x="407" y="151" type="line"/>
    </contour>
    <contour>
      <point x="189" y="246" type="line"/>
      <point x="314" y="246" type="line"/>
      <point x="314" y="424" type="line"/>
    </contour>
  </outline>
</glyph>
<glyph name="five" format="1">
  <advance width="588"/>
  <unicode hex="0035"/>
  <outline>
    <contour>
      <point x="265" y="0" type="curve" smooth="yes"/>
      <point x="405" y="0"/>
      <point x="502" y="114"/>
      <point x="501" y="259" type="curve" smooth="yes"/>
      <point x="500" y="370"/>
      <point x="424" y="486"/>
      <point x="294" y="486" type="curve" smooth="yes"/>
      <point x="254" y="486"/>
      <point x="222" y="477"/>
      <point x="195" y="464" type="curve"/>
      <point x="204" y="563" type="line"/>
      <point x="468" y="563" type="line"/>
      <point x="486" y="657" type="line"/>
      <point x="120" y="657" type="line"/>
      <point x="88" y="337" type="line"/>
      <point x="167" y="312" type="line"/>
      <point x="195" y="356"/>
      <point x="245" y="392"/>
      <point x="294" y="392" type="curve" smooth="yes"/>
      <point x="349" y="392"/>
      <point x="409" y="346"/>
      <point x="408" y="259" type="curve" smooth="yes"/>
      <point x="408" y="174"/>
      <point x="353" y="93"/>
      <point x="265" y="94" type="curve" smooth="yes"/>
      <point x="225" y="94"/>
      <point x="172" y="125"/>
      <point x="142" y="191" type="curve"/>
      <point x="56" y="153" type="line"/>
      <point x="115" y="28"/>
      <point x="211" y="0"/>
    </contour>
  </outline>
</glyph>
<glyph name="six" format="1">
  <advance width="572"/>
  <unicode hex="0036"/>
  <outline>
    <contour>
      <point x="359" y="676" type="line"/>
      <point x="174" y="597"/>
      <point x="58" y="439"/>
      <point x="58" y="246" type="curve" smooth="yes"/>
      <point x="58" y="110"/>
      <point x="126" y="-5"/>
      <point x="279" y="-5" type="curve" smooth="yes"/>
      <point x="334" y="-5"/>
      <point x="484" y="36"/>
      <point x="484" y="241" type="curve" smooth="yes"/>
      <point x="484" y="441"/>
      <point x="309" y="447"/>
      <point x="288" y="447" type="curve" smooth="yes"/>
      <point x="253" y="447"/>
      <point x="226" y="443"/>
      <point x="200" y="434" type="curve"/>
      <point x="241" y="498"/>
      <point x="315" y="557"/>
      <point x="389" y="587" type="curve"/>
    </contour>
    <contour>
      <point x="153" y="300" type="curve"/>
      <point x="173" y="318"/>
      <point x="219" y="354"/>
      <point x="288" y="354" type="curve" smooth="yes"/>
      <point x="313" y="354"/>
      <point x="392" y="346"/>
      <point x="392" y="241" type="curve" smooth="yes"/>
      <point x="392" y="116"/>
      <point x="311" y="89"/>
      <point x="279" y="89" type="curve" smooth="yes"/>
      <point x="220" y="89"/>
      <point x="151" y="116"/>
      <point x="151" y="246" type="curve" smooth="yes"/>
      <point x="151" y="264"/>
      <point x="151" y="282"/>
    </contour>
  </outline>
</glyph>
<glyph name="nine" format="1">
  <advance width="572"/>
  <unicode hex="0039"/>
  <outline>
    <contour>
      <point x="183" y="-9" type="line"/>
      <point x="328" y="45"/>
      <point x="484" y="198"/>
      <point x="484" y="419" type="curve" smooth="yes"/>
      <point x="484" y="557"/>
      <point x="417" y="669"/>
      <point x="265" y="669" type="curve" smooth="yes"/>
      <point x="153" y="669"/>
      <point x="58" y="572"/>
      <point x="58" y="424" type="curve" smooth="yes"/>
      <point x="58" y="224"/>
      <point x="233" y="217"/>
      <point x="253" y="217" type="curve" smooth="yes"/>
      <point x="289" y="217"/>
      <point x="315" y="222"/>
      <point x="342" y="231" type="curve"/>
      <point x="303" y="167"/>
      <point x="235" y="111"/>
      <point x="153" y="78" type="curve"/>
    </contour>
    <contour>
      <point x="388" y="364" type="curve"/>
      <point x="369" y="346"/>
      <point x="322" y="311"/>
      <point x="253" y="311" type="curve" smooth="yes"/>
      <point x="230" y="311"/>
      <point x="151" y="319"/>
      <point x="151" y="424" type="curve" smooth="yes"/>
      <point x="151" y="548"/>
      <point x="232" y="576"/>
      <point x="263" y="576" type="curve" smooth="yes"/>
      <point x="322" y="576"/>
      <point x="392" y="548"/>
      <point x="392" y="419" type="curve" smooth="yes"/>
      <point x="392" y="401"/>
      <point x="391" y="382"/>
    </contour>
  </outline>
</glyph>
<glyph name="colon" format="1">
  <advance width="276"/>
  <unicode hex="003A"/>
  <outline>
    <contour>
      <point x="208" y="454" type="line"/>
      <point x="93" y="439" type="line"/>
      <point x="80" y="317" type="line"/>
      <point x="194" y="332" type="line"/>
    </contour>
    <contour>
      <point x="181" y="133" type="line"/>
      <point x="69" y="118" type="line"/>
      <point x="55" y="-4" type="line"/>
      <point x="170" y="12" type="line"/>
    </contour>
  </outline>
</glyph>
<glyph name="semicolon" format="1">
  <advance width="358"/>
  <unicode hex="003B"/>
  <outline>
    <contour>
      <point x="272" y="456" type="line"/>
      <point x="158" y="441" type="line"/>
      <point x="144" y="319" type="line"/>
      <point x="259" y="334" type="line"/>
    </contour>
    <contour>
      <point x="163" y="124" type="line"/>
      <point x="78" y="37" type="line"/>
      <point x="121" y="14" type="line"/>
      <point x="71" y="-73" type="line"/>
      <point x="156" y="-121" type="line"/>
      <point x="263" y="68" type="line"/>
    </contour>
  </outline>
</glyph>
<glyph name="less" format="1">
  <advance width="594"/>
  <unicode hex="003C"/>
  <outline>
    <contour>
      <point x="438" y="-11" type="line"/>
      <point x="491" y="68" type="line"/>
      <point x="221" y="249" type="line"/>
      <point x="506" y="433" type="line"/>
      <point x="456" y="513" type="line"/>
      <point x="50" y="251" type="line"/>
    </contour>
  </outline>
</glyph>
<glyph name="B" format="1">
  <advance width="628"/>
  <unicode hex="0042"/>
  <outline>
    <contour>
      <point x="61" y="0" type="line"/>
      <point x="147" y="0" type="line" smooth="yes"/>
      <point x="270" y="0"/>
      <point x="561" y="20"/>
      <point x="561" y="212" type="curve" smooth="yes"/>
      <point x="561" y="293"/>
      <point x="498" y="355"/>
      <point x="438" y="374" type="curve"/>
      <point x="479" y="403"/>
      <point x="505" y="443"/>
      <point x="505" y="493" type="curve" smooth="yes"/>
      <point x="505" y="610"/>
      <point x="421" y="681"/>
      <point x="281" y="681" type="curve" smooth="yes"/>
      <point x="61" y="681" type="line"/>
    </contour>
    <contour>
      <point x="158" y="309" type="line"/>
      <point x="306" y="309" type="line" smooth="yes"/>
      <point x="364" y="309"/>
      <point x="464" y="294"/>
      <point x="464" y="212" type="curve" smooth="yes"/>
      <point x="464" y="114"/>
      <point x="249" y="95"/>
      <point x="158" y="96" type="curve"/>
    </contour>
    <contour>
      <point x="158" y="584" type="line"/>
      <point x="281" y="584" type="line" smooth="yes"/>
      <point x="386" y="584"/>
      <point x="408" y="535"/>
      <point x="408" y="493" type="curve" smooth="yes"/>
      <point x="408" y="423"/>
      <point x="327" y="405"/>
      <point x="265" y="405" type="curve" smooth="yes"/>
      <point x="158" y="405" type="line"/>
    </contour>
  </outline>
</glyph>
<glyph name="E" format="1">
  <advance width="637"/>
  <unicode hex="0045"/>
  <outline>
    <contour>
      <point x="160" y="99" type="line"/>
      <point x="570" y="99" type="line"/>
      <point x="535" y="0" type="line"/>
      <point x="61" y="0" type="line"/>
      <point x="61" y="681" type="line"/>
      <point x="560" y="681" type="line"/>
      <point x="543" y="582" type="line"/>
      <point x="160" y="582" type="line"/>
      <point x="160" y="402" type="line"/>
      <point x="526" y="402" type="line"/>
      <point x="497" y="304" type="line"/>
      <point x="160" y="304" type="line"/>
    </contour>
  </outline>
</glyph>
<glyph name="F" format="1">
  <advance width="531"/>
  <unicode hex="0046"/>
  <outline>
    <contour>
      <point x="503" y="582" type="line"/>
      <point x="521" y="681" type="line"/>
      <point x="55" y="681" type="line"/>
      <point x="55" y="-5" type="line"/>
      <point x="154" y="12" type="line"/>
      <point x="154" y="295" type="line"/>
      <point x="457" y="295" type="line"/>
      <point x="474" y="395" type="line"/>
      <point x="154" y="395" type="line"/>
      <point x="154" y="582" type="line"/>
    </contour>
  </outline>
</glyph>
<glyph name="K" format="1">
  <advance width="603"/>
  <unicode hex="004B"/>
  <outline>
    <contour>
      <point x="547" y="68" type="line"/>
      <point x="191" y="337" type="line"/>
      <point x="523" y="616" type="line"/>
      <point x="460" y="689" type="line"/>
      <point x="157" y="435" type="line"/>
      <point x="157" y="686" type="line"/>
      <point x="61" y="668" type="line"/>
      <point x="61" y="-5" type="line"/>
      <point x="157" y="12" type="line"/>
      <point x="157" y="242" type="line"/>
      <point x="487" y="-9" type="line"/>
    </contour>
  </outline>
</glyph>
<glyph name="N" format="1">
  <advance width="641"/>
  <unicode hex="004E"/>
  <outline>
    <contour>
      <point x="463" y="668" type="line"/>
      <point x="559" y="686" type="line"/>
      <point x="559" y="16" type="line"/>
      <point x="465" y="-3" type="line"/>
      <point x="158" y="489" type="line"/>
      <point x="158" y="15" type="line"/>
      <point x="62" y="-4" type="line"/>
      <point x="61" y="660" type="line"/>
      <point x="149" y="685" type="line"/>
      <point x="463" y="184" type="line"/>
    </contour>
  </outline>
</glyph>
<glyph name="U" format="1">
  <advance width="710"/>
  <unicode hex="0055"/>
  <outline>
    <contour>
      <point x="343" y="0" type="curve" smooth="yes"/>
      <point x="603" y="0"/>
      <point x="624" y="240"/>
      <point x="624" y="467" type="curve" smooth="yes"/>
      <point x="624" y="536"/>
      <point x="622" y="662"/>
      <point x="621" y="685" type="curve"/>
      <point x="522" y="666" type="line"/>
      <point x="523" y="633"/>
      <point x="525" y="502"/>
      <point x="525" y="425" type="curve" smooth="yes"/>
      <point x="525" y="276"/>
      <point x="512" y="92"/>
      <point x="343" y="92" type="curve" smooth="yes"/>
      <point x="180" y="92"/>
      <point x="162" y="260"/>
      <point x="162" y="443" type="curve" smooth="yes"/>
      <point x="162" y="521"/>
      <point x="164" y="664"/>
      <point x="165" y="685" type="curve"/>
      <point x="66" y="668" type="line"/>
      <point x="65" y="640"/>
      <point x="63" y="516"/>
      <point x="63" y="451" type="curve" smooth="yes"/>
      <point x="63" y="194"/>
      <point x="103" y="0"/>
    </contour>
  </outline>
</glyph>
<glyph name="W" format="1">
  <advance width="904"/>
  <unicode hex="0057"/>
  <outline>
    <contour>
      <point x="871" y="686" type="line"/>
      <point x="762" y="668" type="line"/>
      <point x="600" y="191" type="line"/>
      <point x="477" y="685" type="line"/>
      <point x="388" y="669" type="line"/>
      <point x="343" y="517"/>
      <point x="294" y="353"/>
      <point x="247" y="198" type="curve"/>
      <point x="104" y="685" type="line"/>
      <point x="8" y="667" type="line"/>
      <point x="204" y="-3" type="line"/>
      <point x="293" y="12" type="line"/>
      <point x="431" y="474" type="line"/>
      <point x="552" y="-3" type="line"/>
      <point x="642" y="12" type="line"/>
    </contour>
  </outline>
</glyph>
<glyph name="X" format="1">
  <advance width="672"/>
  <unicode hex="0058"/>
  <outline>
    <contour>
      <point x="584" y="43" type="line"/>
      <point x="376" y="344" type="line"/>
      <point x="592" y="637" type="line"/>
      <point x="513" y="694" type="line"/>
      <point x="318" y="429" type="line"/>
      <point x="137" y="694" type="line"/>
      <point x="56" y="639" type="line"/>
      <point x="257" y="346" type="line"/>
      <point x="35" y="44" type="line"/>
      <point x="115" y="-13" type="line"/>
      <point x="316" y="261" type="line"/>
      <point x="504" y="-13" type="line"/>
    </contour>
  </outline>
</glyph>
<glyph name="Y" format="1">
  <advance width="654"/>
  <unicode hex="0059"/>
  <outline>
    <contour>
      <point x="324" y="318" type="line"/>
      <point x="114" y="677" type="line"/>
      <point x="2" y="677" type="line"/>
      <point x="266" y="223" type="line"/>
      <point x="135" y="0" type="line"/>
      <point x="248" y="0" type="line"/>
      <point x="650" y="677" type="line"/>
      <point x="537" y="677" type="line"/>
    </contour>
  </outline>
</glyph>
<glyph name="Z" format="1">
  <advance width="647"/>
  <unicode hex="005A"/>
  <outline>
    <contour>
      <point x="77" y="0" type="line"/>
      <point x="557" y="0" type="line"/>
      <point x="574" y="103" type="line"/>
      <point x="182" y="103" type="line"/>
      <point x="583" y="603" type="line"/>
      <point x="547" y="681" type="line"/>
      <point x="87" y="681" type="line"/>
      <point x="70" y="578" type="line"/>
      <point x="442" y="578" type="line"/>
      <point x="41" y="77" type="line"/>
    </contour>
  </outline>
</glyph>
<glyph name="backslash" format="1">
  <advance width="518"/>
  <unicode hex="005C"/>
  <outline>
    <contour>
      <point x="117" y="676" type="line"/>
      <point x="10" y="676" type="line"/>
      <point x="380" y="0" type="line"/>
      <point x="488" y="0" type="line"/>
    </contour>
  </outline>
</glyph>
<glyph name="asciicircum" format="1">
  <advance width="526"/>
  <unicode hex="005E"/>
  <outline>
    <contour>
      <point x="151" y="644" type="line"/>
      <point x="256" y="726" type="line"/>
      <point x="346" y="645" type="line"/>
      <point x="410" y="714" type="line"/>
      <point x="262" y="854" type="line"/>
      <point x="92" y="718" type="line"/>
    </contour>
  </outline>
</glyph>
<glyph name="underscore" format="1">
  <advance width="502"/>
  <unicode hex="005F"/>
  <outline>
    <contour>
      <point x="478" y="-49" type="line"/>
      <point x="495" y="45" type="line"/>
      <point x="2" y="45" type="line"/>
      <point x="-14" y="-49" type="line"/>
    </contour>
  </outline>
</glyph>
<glyph name="grave" format="1">
  <advance width="526"/>
  <unicode hex="0060"/>
  <outline>
    <contour>
      <point x="371" y="703" type="line"/>
      <point x="226" y="870" type="line"/>
      <point x="129" y="816" type="line"/>
      <point x="290" y="654" type="line"/>
    </contour>
  </outline>
</glyph>
<glyph name="a" format="1">
  <advance width="530"/>
  <unicode hex="0061"/>
  <outline>
    <contour>
      <point x="446" y="466" type="line"/>
      <point x="395" y="492"/>
      <point x="339" y="512"/>
      <point x="285" y="512" type="curve" smooth="yes"/>
      <point x="111" y="512"/>
      <point x="47" y="327"/>
      <point x="47" y="226" type="curve" smooth="yes"/>
      <point x="47" y="95"/>
      <point x="129" y="6"/>
      <point x="240" y="6" type="curve" smooth="yes"/>
      <point x="281" y="6"/>
      <point x="318" y="18"/>
      <point x="350" y="34" type="curve"/>
      <point x="350" y="-5" type="line"/>
      <point x="446" y="13" type="line"/>
    </contour>
    <contour>
      <point x="144" y="227" type="curve" smooth="yes"/>
      <point x="144" y="296"/>
      <point x="182" y="417"/>
      <point x="290" y="417" type="curve" smooth="yes"/>
      <point x="309" y="417"/>
      <point x="335" y="412"/>
      <point x="352" y="404" type="curve"/>
      <point x="348" y="143" type="line"/>
      <point x="324" y="126"/>
      <point x="279" y="102"/>
      <point x="239" y="102" type="curve" smooth="yes"/>
      <point x="170" y="103"/>
      <point x="144" y="172"/>
    </contour>
  </outline>
</glyph>
<glyph name="c" format="1">
  <advance width="533"/>
  <unicode hex="0063"/>
  <outline>
    <contour>
      <point x="276" y="93" type="curve" smooth="yes"/>
      <point x="238" y="91"/>
      <point x="142" y="113"/>
      <point x="142" y="221" type="curve" smooth="yes"/>
      <point x="142" y="295"/>
      <point x="198" y="409"/>
      <point x="276" y="409" type="curve" smooth="yes"/>
      <point x="310" y="409"/>
      <point x="346" y="386"/>
      <point x="372" y="342" type="curve"/>
      <point x="442" y="411" type="line"/>
      <point x="398" y="470"/>
      <point x="339" y="502"/>
      <point x="274" y="502" type="curve" smooth="yes"/>
      <point x="137" y="502"/>
      <point x="48" y="331"/>
      <point x="48" y="219" type="curve" smooth="yes"/>
      <point x="48" y="93"/>
      <point x="158" y="-6"/>
      <point x="279" y="0" type="curve"/>
      <point x="357" y="3"/>
      <point x="427" y="47"/>
      <point x="470" y="114" type="curve"/>
      <point x="398" y="186" type="line"/>
      <point x="369" y="131"/>
      <point x="324" y="95"/>
    </contour>
  </outline>
</glyph>
<glyph name="g" format="1">
  <advance width="548"/>
  <unicode hex="0067"/>
  <outline>
    <contour>
      <point x="464" y="512" type="line"/>
      <point x="366" y="497" type="line"/>
      <point x="366" y="487" type="line"/>
      <point x="342" y="497"/>
      <point x="319" y="501"/>
      <point x="286" y="501" type="curve" smooth="yes"/>
      <point x="142" y="501"/>
      <point x="48" y="373"/>
      <point x="48" y="245" type="curve" smooth="yes"/>
      <point x="48" y="108"/>
      <point x="135" y="10"/>
      <point x="251" y="10" type="curve" smooth="yes"/>
      <point x="290" y="10"/>
      <point x="326" y="19"/>
      <point x="356" y="42" type="curve"/>
      <point x="355" y="9"/>
      <point x="342" y="-72"/>
      <point x="246" y="-72" type="curve" smooth="yes"/>
      <point x="206" y="-72"/>
      <point x="157" y="-64"/>
      <point x="125" y="-56" type="curve"/>
      <point x="105" y="-150" type="line"/>
      <point x="145" y="-159"/>
      <point x="202" y="-168"/>
      <point x="246" y="-168" type="curve" smooth="yes"/>
      <point x="375" y="-168"/>
      <point x="450" y="-94"/>
      <point x="453" y="39" type="curve" smooth="yes"/>
    </contour>
    <contour>
      <point x="362" y="386" type="curve"/>
      <point x="362" y="266" type="line" smooth="yes"/>
      <point x="362" y="136"/>
      <point x="299" y="105"/>
      <point x="246" y="104" type="curve"/>
      <point x="170" y="104"/>
      <point x="138" y="189"/>
      <point x="138" y="243" type="curve" smooth="yes"/>
      <point x="138" y="332"/>
      <point x="203" y="406"/>
      <point x="291" y="406" type="curve" smooth="yes"/>
      <point x="317" y="406"/>
      <point x="344" y="397"/>
    </contour>
  </outline>
</glyph>
<glyph name="h" format="1">
  <advance width="530"/>
  <unicode hex="0068"/>
  <outline>
    <contour>
      <point x="158" y="201" type="line" smooth="yes"/>
      <point x="158" y="228"/>
      <point x="160" y="252"/>
      <point x="169" y="272" type="curve" smooth="yes"/>
      <point x="183" y="300"/>
      <point x="247" y="407"/>
      <point x="303" y="407" type="curve" smooth="yes"/>
      <point x="352" y="407"/>
      <point x="365" y="315"/>
      <point x="365" y="146" type="curve" smooth="yes"/>
      <point x="365" y="85"/>
      <point x="362" y="8"/>
      <point x="361" y="-5" type="curve"/>
      <point x="457" y="12" type="line"/>
      <point x="458" y="28"/>
      <point x="459" y="94"/>
      <point x="459" y="152" type="curve" smooth="yes"/>
      <point x="459" y="386"/>
      <point x="429" y="505"/>
      <point x="315" y="505" type="curve" smooth="yes"/>
      <point x="254" y="505"/>
      <point x="198" y="463"/>
      <point x="158" y="409" type="curve"/>
      <point x="158" y="679" type="line"/>
      <point x="61" y="661" type="line"/>
      <point x="61" y="-5" type="line"/>
      <point x="158" y="12" type="line"/>
    </contour>
  </outline>
</glyph>
<glyph name="j" format="1">
  <advance width="339"/>
  <unicode hex="006A"/>
  <outline>
    <contour>
      <point x="268" y="684" type="line"/>
      <point x="168" y="668" type="line"/>
      <point x="160" y="546" type="line"/>
      <point x="258" y="562" type="line"/>
    </contour>
    <contour>
      <point x="-50" y="30" type="line"/>
      <point x="-42" y="11"/>
      <point x="24" y="-164"/>
      <point x="129" y="-164" type="curve" smooth="yes"/>
      <point x="232" y="-164"/>
      <point x="266" y="-52"/>
      <point x="266" y="23" type="curve" smooth="yes"/>
      <point x="266" y="38"/>
      <point x="263" y="275"/>
      <point x="259" y="517" type="curve"/>
      <point x="162" y="499" type="line"/>
      <point x="166" y="260"/>
      <point x="168" y="34"/>
      <point x="168" y="18" type="curve" smooth="yes"/>
      <point x="168" y="-31"/>
      <point x="158" y="-72"/>
      <point x="132" y="-72" type="curve" smooth="yes"/>
      <point x="101" y="-72"/>
      <point x="61" y="13"/>
      <point x="46" y="50" type="curve"/>
    </contour>
  </outline>
</glyph>
<glyph name="l" format="1">
  <advance width="252"/>
  <unicode hex="006C"/>
  <outline>
    <contour>
      <point x="74" y="661" type="line"/>
      <point x="74" y="-5" type="line"/>
      <point x="170" y="12" type="line"/>
      <point x="170" y="679" type="line"/>
    </contour>
  </outline>
</glyph>
<glyph name="p" format="1">
  <advance width="544"/>
  <unicode hex="0070"/>
  <outline>
    <contour>
      <point x="305" y="497" type="curve"/>
      <point x="306" y="497" type="line"/>
      <point x="421" y="492"/>
      <point x="473" y="373"/>
      <point x="473" y="268" type="curve" smooth="yes"/>
      <point x="473" y="136"/>
      <point x="414" y="6"/>
      <point x="255" y="6" type="curve" smooth="yes"/>
      <point x="219" y="6"/>
      <point x="186" y="13"/>
      <point x="158" y="22" type="curve"/>
      <point x="158" y="-164" type="line"/>
      <point x="61" y="-180" type="line"/>
      <point x="61" y="486" type="line"/>
      <point x="158" y="504" type="line"/>
      <point x="158" y="458" type="line"/>
      <point x="202" y="481"/>
      <point x="241" y="497"/>
    </contour>
    <contour>
      <point x="258" y="103" type="curve" smooth="yes"/>
      <point x="350" y="103"/>
      <point x="383" y="179"/>
      <point x="383" y="268" type="curve" smooth="yes"/>
      <point x="383" y="323"/>
      <point x="358" y="407"/>
      <point x="291" y="407" type="curve" smooth="yes"/>
      <point x="221" y="407"/>
      <point x="176" y="366"/>
      <point x="158" y="343" type="curve"/>
      <point x="158" y="126" type="line"/>
      <point x="181" y="117"/>
      <point x="221" y="103"/>
    </contour>
  </outline>
</glyph>
<glyph name="t" format="1">
  <advance width="399"/>
  <unicode hex="0074"/>
  <outline>
    <contour>
      <point x="365" y="502" type="line"/>
      <point x="365" y="406" type="line"/>
      <point x="240" y="406" type="line"/>
      <point x="240" y="12" type="line"/>
      <point x="142" y="-5" type="line"/>
      <point x="142" y="406" type="line"/>
      <point x="17" y="406" type="line"/>
      <point x="17" y="502" type="line"/>
      <point x="142" y="502" type="line"/>
      <point x="142" y="644" type="line"/>
      <point x="240" y="660" type="line"/>
      <point x="240" y="502" type="line"/>
    </contour>
  </outline>
</glyph>
<glyph name="w" format="1">
  <advance width="679"/>
  <unicode hex="0077"/>
  <outline>
    <contour>
      <point x="636" y="502" type="line"/>
      <point x="531" y="485" type="line"/>
      <point x="444" y="192" type="line"/>
      <point x="373" y="499" type="line"/>
      <point x="288" y="484" type="line"/>
      <point x="192" y="196" type="line"/>
      <point x="132" y="502" type="line"/>
      <point x="37" y="481" type="line"/>
      <point x="135" y="-5" type="line"/>
      <point x="225" y="14" type="line"/>
      <point x="324" y="296" type="line"/>
      <point x="396" y="-4" type="line"/>
      <point x="484" y="15" type="line"/>
    </contour>
  </outline>
</glyph>
<glyph name="x" format="1">
  <advance width="497"/>
  <unicode hex="0078"/>
  <outline>
    <contour>
      <point x="444" y="41" type="line"/>
      <point x="294" y="256" type="line"/>
      <point x="458" y="453" type="line"/>
      <point x="388" y="515" type="line"/>
      <point x="238" y="335" type="line"/>
      <point x="114" y="514" type="line"/>
      <point x="38" y="460" type="line"/>
      <point x="177" y="259" type="line"/>
      <point x="1" y="48" type="line"/>
      <point x="71" y="-13" type="line"/>
      <point x="231" y="180" type="line"/>
      <point x="367" y="-12" type="line"/>
    </contour>
  </outline>
</glyph>
<glyph name="y" format="1">
  <advance width="526"/>
  <unicode hex="0079"/>
  <outline>
    <contour>
      <point x="404" y="508" type="line"/>
      <point x="492" y="467" type="line"/>
      <point x="188" y="-187" type="line"/>
      <point x="101" y="-146" type="line"/>
      <point x="205" y="78" type="line"/>
      <point x="12" y="464" type="line"/>
      <point x="98" y="507" type="line"/>
      <point x="256" y="191" type="line"/>
    </contour>
  </outline>
</glyph>
<glyph name="z" format="1">
  <advance width="479"/>
  <unicode hex="007A"/>
  <outline>
    <contour>
      <point x="411" y="0" type="line"/>
      <point x="55" y="0" type="line"/>
      <point x="22" y="68" type="line"/>
      <point x="291" y="406" type="line"/>
      <point x="42" y="406" type="line"/>
      <point x="59" y="502" type="line"/>
      <point x="402" y="502" type="line"/>
      <point x="434" y="435" type="line"/>
      <point x="166" y="96" type="line"/>
      <point x="428" y="96" type="line"/>
    </contour>
  </outline>
</glyph>
<glyph name="braceright" format="1">
  <advance width="400"/>
  <unicode hex="007D"/>
  <outline>
    <contour>
      <point x="312" y="357" type="curve"/>
      <point x="312" y="288" type="line"/>
      <point x="274" y="272"/>
      <point x="251" y="247"/>
      <point x="251" y="214" type="curve" smooth="yes"/>
      <point x="251" y="42" type="line" smooth="yes"/>
      <point x="251" y="-79"/>
      <point x="118" y="-114"/>
      <point x="48" y="-115" type="curve"/>
      <point x="50" y="-21" type="line"/>
      <point x="109" y="-19"/>
      <point x="156" y="4"/>
      <point x="156" y="42" type="curve" smooth="yes"/>
      <point x="156" y="213" type="line" smooth="yes"/>
      <point x="156" y="259"/>
      <point x="172" y="287"/>
      <point x="209" y="326" type="curve"/>
      <point x="185" y="352"/>
      <point x="156" y="383"/>
      <point x="156" y="439" type="curve" smooth="yes"/>
      <point x="156" y="623" type="line" smooth="yes"/>
      <point x="156" y="657"/>
      <point x="120" y="682"/>
      <point x="47" y="688" type="curve"/>
      <point x="49" y="782" type="line"/>
      <point x="119" y="780"/>
      <point x="251" y="744"/>
      <point x="251" y="623" type="curve" smooth="yes"/>
      <point x="251" y="431" type="line" smooth="yes"/>
      <point x="251" y="398"/>
      <point x="274" y="373"/>
    </contour>
  </outline>
</glyph>
<glyph name="asciitilde" format="1">
  <advance width="671"/>
  <unicode hex="007E"/>
  <outline>
    <contour>
      <point x="492" y="357" type="line"/>
      <point x="473" y="285"/>
      <point x="439" y="241"/>
      <point x="410" y="241" type="curve" smooth="yes"/>
      <point x="390" y="241"/>
      <point x="376" y="259"/>
      <point x="354" y="289" type="curve" smooth="yes"/>
      <point x="325" y="330"/>
      <point x="291" y="366"/>
      <point x="223" y="366" type="curve" smooth="yes"/>
      <point x="135" y="366"/>
      <point x="81" y="275"/>
      <point x="60" y="200" type="curve"/>
      <point x="146" y="157" type="line"/>
      <point x="149" y="172"/>
      <point x="176" y="261"/>
      <point x="223" y="261" type="curve" smooth="yes"/>
      <point x="242" y="261"/>
      <point x="257" y="244"/>
      <point x="278" y="214" type="curve" smooth="yes"/>
      <point x="308" y="172"/>
      <point x="341" y="136"/>
      <point x="410" y="136" type="curve" smooth="yes"/>
      <point x="519" y="136"/>
      <point x="567" y="272"/>
      <point x="581" y="314" type="curve"/>
    </contour>
  </outline>
</glyph>
<glyph name="cent" format="1">
  <advance width="532"/>
  <unicode hex="00A2"/>
  <outline>
    <contour>
      <point x="297" y="90" type="line"/>
      <point x="367" y="98"/>
      <point x="428" y="141"/>
      <point x="468" y="203" type="curve"/>
      <point x="398" y="274" type="line"/>
      <point x="376" y="231"/>
      <point x="335" y="196"/>
      <point x="297" y="185" type="curve"/>
      <point x="297" y="185"/>
      <point x="304" y="383"/>
      <point x="307" y="493" type="curve"/>
      <point x="329" y="487"/>
      <point x="350" y="466"/>
      <point x="372" y="430" type="curve"/>
      <point x="442" y="499" type="line"/>
      <point x="407" y="547"/>
      <point x="357" y="579"/>
      <point x="308" y="588" type="curve"/>
      <point x="310" y="682" type="line"/>
      <point x="222" y="648" type="line"/>
      <point x="220" y="580" type="line"/>
      <point x="109" y="539"/>
      <point x="48" y="416"/>
      <point x="48" y="308" type="curve" smooth="yes"/>
      <point x="48" y="216"/>
      <point x="102" y="135"/>
      <point x="208" y="98" type="curve"/>
      <point x="206" y="-9" type="line"/>
      <point x="295" y="22" type="line"/>
    </contour>
    <contour>
      <point x="210" y="197" type="line"/>
      <point x="163" y="223"/>
      <point x="140" y="266"/>
      <point x="140" y="311" type="curve" smooth="yes"/>
      <point x="140" y="349"/>
      <point x="161" y="433"/>
      <point x="218" y="476" type="curve"/>
    </contour>
  </outline>
</glyph>
<glyph name="currency" format="1">
  <advance width="526"/>
  <unicode hex="00A4"/>
  <outline>
    <contour>
      <point x="419" y="251" type="curve" smooth="yes"/>
      <point x="419" y="281"/>
      <point x="413" y="309"/>
      <point x="398" y="334" type="curve"/>
      <point x="466" y="403" type="line"/>
      <point x="401" y="468" type="line"/>
      <point x="332" y="398" type="line"/>
      <point x="307" y="412"/>
      <point x="281" y="418"/>
      <point x="252" y="418" type="curve" smooth="yes"/>
      <point x="223" y="418"/>
      <point x="196" y="412"/>
      <point x="172" y="398" type="curve"/>
      <point x="102" y="468" type="line"/>
      <point x="36" y="403" type="line"/>
      <point x="105" y="333" type="line"/>
      <point x="92" y="308"/>
      <point x="83" y="280"/>
      <point x="83" y="251" type="curve" smooth="yes"/>
      <point x="83" y="223"/>
      <point x="91" y="195"/>
      <point x="104" y="171" type="curve"/>
      <point x="36" y="103" type="line"/>
      <point x="102" y="37" type="line"/>
      <point x="169" y="105" type="line"/>
      <point x="193" y="91"/>
      <point x="222" y="83"/>
      <point x="252" y="83" type="curve" smooth="yes"/>
      <point x="281" y="83"/>
      <point x="309" y="91"/>
      <point x="333" y="105" type="curve"/>
      <point x="401" y="38" type="line"/>
      <point x="466" y="104" type="line"/>
      <point x="399" y="171" type="line"/>
      <point x="412" y="195"/>
      <point x="419" y="222"/>
    </contour>
    <contour>
      <point x="252" y="175" type="curve" smooth="yes"/>
      <point x="210" y="175"/>
      <point x="175" y="209"/>
      <point x="175" y="251" type="curve" smooth="yes"/>
      <point x="175" y="293"/>
      <point x="210" y="326"/>
      <point x="252" y="326" type="curve" smooth="yes"/>
      <point x="293" y="326"/>
      <point x="327" y="293"/>
      <point x="327" y="251" type="curve" smooth="yes"/>
      <point x="327" y="209"/>
      <point x="293" y="175"/>
    </contour>
  </outline>
</glyph>
<glyph name="yen" format="1">
  <advance width="611"/>
  <unicode hex="00A5"/>
  <outline>
    <contour>
      <point x="237" y="262" type="line"/>
      <point x="237" y="206" type="line"/>
      <point x="113" y="206" type="line"/>
      <point x="96" y="112" type="line"/>
      <point x="237" y="112" type="line"/>
      <point x="237" y="-5" type="line"/>
      <point x="332" y="12" type="line"/>
      <point x="332" y="112" type="line"/>
      <point x="454" y="112" type="line"/>
      <point x="472" y="206" type="line"/>
      <point x="332" y="206" type="line"/>
      <point x="332" y="262" type="line"/>
      <point x="454" y="262" type="line"/>
      <point x="472" y="356" type="line"/>
      <point x="373" y="356" type="line"/>
      <point x="533" y="672" type="line"/>
      <point x="428" y="672" type="line"/>
      <point x="286" y="391" type="line"/>
      <point x="153" y="672" type="line"/>
      <point x="48" y="672" type="line"/>
      <point x="198" y="356" type="line"/>
      <point x="113" y="356" type="line"/>
      <point x="96" y="262" type="line"/>
    </contour>
  </outline>
</glyph>
<glyph name="section" format="1">
  <advance width="501"/>
  <unicode hex="00A7"/>
  <outline>
    <contour>
      <point x="331" y="275" type="curve"/>
      <point x="308" y="287"/>
      <point x="280" y="294"/>
      <point x="248" y="304" type="curve" smooth="yes"/>
      <point x="216" y="313"/>
      <point x="163" y="321"/>
      <point x="163" y="367" type="curve" smooth="yes"/>
      <point x="163" y="375"/>
      <point x="165" y="382"/>
      <point x="173" y="390" type="curve"/>
      <point x="196" y="384"/>
      <point x="228" y="374"/>
      <point x="243" y="369" type="curve" smooth="yes"/>
      <point x="322" y="345"/>
      <point x="337" y="330"/>
      <point x="337" y="299" type="curve" smooth="yes"/>
      <point x="337" y="293"/>
      <point x="336" y="284"/>
    </contour>
    <contour>
      <point x="417" y="458" type="line"/>
      <point x="421" y="480"/>
      <point x="423" y="498"/>
      <point x="423" y="506" type="curve" smooth="yes"/>
      <point x="423" y="576"/>
      <point x="370" y="631"/>
      <point x="258" y="631" type="curve" smooth="yes"/>
      <point x="185" y="631"/>
      <point x="81" y="605"/>
      <point x="81" y="500" type="curve" smooth="yes"/>
      <point x="81" y="475"/>
      <point x="87" y="453"/>
      <point x="99" y="434" type="curve"/>
      <point x="88" y="417"/>
      <point x="82" y="397"/>
      <point x="82" y="370" type="curve" smooth="yes"/>
      <point x="82" y="296"/>
      <point x="135" y="253"/>
      <point x="237" y="220" type="curve" smooth="yes"/>
      <point x="306" y="198"/>
      <point x="328" y="179"/>
      <point x="328" y="152" type="curve" smooth="yes"/>
      <point x="328" y="133"/>
      <point x="307" y="94"/>
      <point x="244" y="94" type="curve" smooth="yes"/>
      <point x="196" y="94"/>
      <point x="159" y="123"/>
      <point x="141" y="172" type="curve"/>
      <point x="55" y="160" type="line"/>
      <point x="56" y="116"/>
      <point x="117" y="0"/>
      <point x="244" y="0" type="curve" smooth="yes"/>
      <point x="353" y="0"/>
      <point x="422" y="79"/>
      <point x="422" y="151" type="curve" smooth="yes"/>
      <point x="422" y="178"/>
      <point x="416" y="202"/>
      <point x="406" y="220" type="curve"/>
      <point x="416" y="239"/>
      <point x="421" y="261"/>
      <point x="421" y="281" type="curve" smooth="yes"/>
      <point x="421" y="388"/>
      <point x="348" y="411"/>
      <point x="255" y="441" type="curve" smooth="yes"/>
      <point x="225" y="450"/>
      <point x="174" y="465"/>
      <point x="174" y="499" type="curve" smooth="yes"/>
      <point x="174" y="526"/>
      <point x="209" y="541"/>
      <point x="260" y="541" type="curve" smooth="yes"/>
      <point x="315" y="541"/>
      <point x="329" y="522"/>
      <point x="329" y="504" type="curve" smooth="yes"/>
      <point x="329" y="495"/>
      <point x="329" y="487"/>
      <point x="326" y="472" type="curve"/>
    </contour>
  </outline>
</glyph>
<glyph name="copyright" format="1">
  <advance width="602"/>
  <unicode hex="00A9"/>
  <outline>
    <contour>
      <point x="277" y="177" type="curve" smooth="yes"/>
      <point x="423" y="177"/>
      <point x="542" y="298"/>
      <point x="542" y="447" type="curve" smooth="yes"/>
      <point x="542" y="596"/>
      <point x="423" y="718"/>
      <point x="277" y="718" type="curve" smooth="yes"/>
      <point x="132" y="718"/>
      <point x="12" y="596"/>
      <point x="12" y="447" type="curve" smooth="yes"/>
      <point x="12" y="298"/>
      <point x="132" y="177"/>
    </contour>
    <contour>
      <point x="277" y="648" type="curve" smooth="yes"/>
      <point x="385" y="648"/>
      <point x="472" y="558"/>
      <point x="472" y="447" type="curve" smooth="yes"/>
      <point x="472" y="336"/>
      <point x="385" y="247"/>
      <point x="277" y="247" type="curve" smooth="yes"/>
      <point x="170" y="247"/>
      <point x="82" y="336"/>
      <point x="82" y="447" type="curve" smooth="yes"/>
      <point x="82" y="558"/>
      <point x="170" y="648"/>
    </contour>
    <contour>
      <point x="275" y="318" type="curve" smooth="yes"/>
      <point x="335" y="318"/>
      <point x="386" y="357"/>
      <point x="412" y="419" type="curve"/>
      <point x="335" y="440" type="line"/>
      <point x="320" y="412"/>
      <point x="304" y="398"/>
      <point x="275" y="398" type="curve" smooth="yes"/>
      <point x="253" y="398"/>
      <point x="228" y="416"/>
      <point x="228" y="444" type="curve" smooth="yes"/>
      <point x="228" y="484"/>
      <point x="254" y="501"/>
      <point x="285" y="501" type="curve" smooth="yes"/>
      <point x="299" y="501"/>
      <point x="319" y="494"/>
      <point x="335" y="475" type="curve"/>
      <point x="391" y="526" type="line"/>
      <point x="352" y="567"/>
      <point x="315" y="580"/>
      <point x="285" y="580" type="curve" smooth="yes"/>
      <point x="202" y="580"/>
      <point x="147" y="527"/>
      <point x="147" y="444" type="curve" smooth="yes"/>
      <point x="147" y="377"/>
      <point x="205" y="318"/>
    </contour>
  </outline>
</glyph>
<glyph name="ordfeminine" format="1">
  <advance width="276"/>
  <unicode hex="00AA"/>
  <outline>
    <contour>
      <point x="267" y="626" type="line"/>
      <point x="228" y="651"/>
      <point x="180" y="661"/>
      <point x="155" y="661" type="curve" smooth="yes"/>
      <point x="60" y="661"/>
      <point x="-4" y="571"/>
      <point x="-4" y="473" type="curve" smooth="yes"/>
      <point x="-4" y="388"/>
      <point x="50" y="326"/>
      <point x="129" y="326" type="curve" smooth="yes"/>
      <point x="144" y="326"/>
      <point x="160" y="328"/>
      <point x="177" y="334" type="curve"/>
      <point x="177" y="315" type="line"/>
      <point x="268" y="333" type="line"/>
    </contour>
    <contour>
      <point x="178" y="568" type="curve"/>
      <point x="176" y="433" type="line"/>
      <point x="163" y="426"/>
      <point x="144" y="416"/>
      <point x="127" y="416" type="curve" smooth="yes"/>
      <point x="103" y="416"/>
      <point x="87" y="438"/>
      <point x="87" y="474" type="curve" smooth="yes"/>
      <point x="87" y="497"/>
      <point x="100" y="571"/>
      <point x="155" y="571" type="curve" smooth="yes"/>
      <point x="165" y="571"/>
      <point x="170" y="570"/>
    </contour>
  </outline>
</glyph>
<glyph name="guillemotleft" format="1">
  <advance width="635"/>
  <unicode hex="00AB"/>
  <outline>
    <contour>
      <point x="259" y="51" type="line"/>
      <point x="324" y="121" type="line"/>
      <point x="180" y="250" type="line"/>
      <point x="339" y="386" type="line"/>
      <point x="278" y="457" type="line"/>
      <point x="38" y="253" type="line"/>
    </contour>
    <contour>
      <point x="486" y="51" type="line"/>
      <point x="550" y="121" type="line"/>
      <point x="407" y="250" type="line"/>
      <point x="565" y="386" type="line"/>
      <point x="504" y="457" type="line"/>
      <point x="264" y="253" type="line"/>
    </contour>
  </outline>
</glyph>
<glyph name="logicalnot" format="1">
  <advance width="542"/>
  <unicode hex="00AC"/>
  <outline>
    <contour>
      <point x="361" y="96" type="line"/>
      <point x="362" y="241" type="line"/>
      <point x="62" y="241" type="line"/>
      <point x="79" y="333" type="line"/>
      <point x="454" y="333" type="line"/>
      <point x="453" y="125" type="line"/>
    </contour>
  </outline>
</glyph>
<glyph name="registered" format="1">
  <advance width="602"/>
  <unicode hex="00AE"/>
  <outline>
    <contour>
      <point x="277" y="177" type="curve" smooth="yes"/>
      <point x="423" y="177"/>
      <point x="542" y="298"/>
      <point x="542" y="447" type="curve" smooth="yes"/>
      <point x="542" y="596"/>
      <point x="423" y="718"/>
      <point x="277" y="718" type="curve" smooth="yes"/>
      <point x="132" y="718"/>
      <point x="12" y="596"/>
      <point x="12" y="447" type="curve" smooth="yes"/>
      <point x="12" y="298"/>
      <point x="132" y="177"/>
    </contour>
    <contour>
      <point x="277" y="648" type="curve" smooth="yes"/>
      <point x="385" y="648"/>
      <point x="472" y="558"/>
      <point x="472" y="447" type="curve" smooth="yes"/>
      <point x="472" y="336"/>
      <point x="385" y="247"/>
      <point x="277" y="247" type="curve" smooth="yes"/>
      <point x="170" y="247"/>
      <point x="82" y="336"/>
      <point x="82" y="447" type="curve" smooth="yes"/>
      <point x="82" y="558"/>
      <point x="170" y="648"/>
    </contour>
    <contour>
      <point x="338" y="425" type="line"/>
      <point x="374" y="438"/>
      <point x="407" y="462"/>
      <point x="407" y="500" type="curve" smooth="yes"/>
      <point x="407" y="551"/>
      <point x="362" y="583"/>
      <point x="282" y="583" type="curve" smooth="yes"/>
      <point x="196" y="583"/>
      <point x="195" y="566"/>
      <point x="191" y="541" type="curve" smooth="yes"/>
      <point x="157" y="331" type="line"/>
      <point x="239" y="338" type="line"/>
      <point x="248" y="391" type="line"/>
      <point x="347" y="323" type="line"/>
      <point x="401" y="382" type="line"/>
    </contour>
  </outline>
</glyph>
<glyph name="macron" format="1">
  <advance width="526"/>
  <unicode hex="00AF"/>
  <outline>
    <contour>
      <point x="381" y="534" type="line"/>
      <point x="105" y="534" type="line"/>
      <point x="122" y="628" type="line"/>
      <point x="398" y="628" type="line"/>
    </contour>
  </outline>
</glyph>
<glyph name="plusminus" format="1">
  <advance width="461"/>
  <unicode hex="00B1"/>
  <outline>
    <contour>
      <point x="56" y="0" type="line"/>
      <point x="74" y="93" type="line"/>
      <point x="383" y="93" type="line"/>
      <point x="366" y="0" type="line"/>
    </contour>
    <contour>
      <point x="397" y="340" type="line"/>
      <point x="378" y="246" type="line"/>
      <point x="267" y="246" type="line"/>
      <point x="267" y="134" type="line"/>
      <point x="173" y="117" type="line"/>
      <point x="173" y="246" type="line"/>
      <point x="45" y="246" type="line"/>
      <point x="61" y="340" type="line"/>
      <point x="173" y="340" type="line"/>
      <point x="173" y="447" type="line"/>
      <point x="267" y="465" type="line"/>
      <point x="267" y="340" type="line"/>
    </contour>
  </outline>
</glyph>
<glyph name="twosuperior" format="1">
  <advance width="263"/>
  <unicode hex="00B2"/>
  <outline>
    <contour>
      <point x="144" y="538" type="curve"/>
      <point x="116" y="519"/>
      <point x="100" y="507"/>
      <point x="92" y="486" type="curve"/>
      <point x="260" y="486" type="line"/>
      <point x="247" y="399" type="line"/>
      <point x="-2" y="399" type="line"/>
      <point x="-2" y="442" type="line" smooth="yes"/>
      <point x="-2" y="527"/>
      <point x="30" y="566"/>
      <point x="97" y="610" type="curve" smooth="yes"/>
      <point x="143" y="641"/>
      <point x="164" y="663"/>
      <point x="164" y="681" type="curve" smooth="yes"/>
      <point x="164" y="696"/>
      <point x="149" y="705"/>
      <point x="134" y="705" type="curve" smooth="yes"/>
      <point x="108" y="705"/>
      <point x="80" y="687"/>
      <point x="51" y="638" type="curve"/>
      <point x="-10" y="708" type="line"/>
      <point x="19" y="752"/>
      <point x="73" y="792"/>
      <point x="127" y="792" type="curve" smooth="yes"/>
      <point x="222" y="792"/>
      <point x="250" y="724"/>
      <point x="250" y="681" type="curve" smooth="yes"/>
      <point x="250" y="619"/>
      <point x="190" y="567"/>
    </contour>
  </outline>
</glyph>
<glyph name="threesuperior" format="1">
  <advance width="262"/>
  <unicode hex="00B3"/>
  <outline>
    <contour>
      <point x="56" y="661" type="curve"/>
      <point x="-3" y="724" type="line"/>
      <point x="24" y="752"/>
      <point x="70" y="789"/>
      <point x="124" y="789" type="curve" smooth="yes"/>
      <point x="194" y="789"/>
      <point x="248" y="745"/>
      <point x="248" y="688" type="curve" smooth="yes"/>
      <point x="248" y="661"/>
      <point x="228" y="630"/>
      <point x="199" y="617" type="curve"/>
      <point x="227" y="603"/>
      <point x="256" y="565"/>
      <point x="256" y="528" type="curve" smooth="yes"/>
      <point x="256" y="434"/>
      <point x="177" y="398"/>
      <point x="126" y="398" type="curve" smooth="yes"/>
      <point x="81" y="398"/>
      <point x="16" y="422"/>
      <point x="-9" y="511" type="curve"/>
      <point x="76" y="547" type="line"/>
      <point x="82" y="507"/>
      <point x="101" y="485"/>
      <point x="126" y="485" type="curve" smooth="yes"/>
      <point x="150" y="485"/>
      <point x="169" y="504"/>
      <point x="169" y="528" type="curve" smooth="yes"/>
      <point x="169" y="551.572"/>
      <point x="144.997" y="574.255"/>
      <point x="86.0933" y="574.255" type="curve" smooth="yes"/>
      <point x="82.5245" y="574.255"/>
      <point x="78.8275" y="574.171"/>
      <point x="75" y="574" type="curve"/>
      <point x="68" y="636" type="line"/>
      <point x="101" y="636"/>
      <point x="161" y="663"/>
      <point x="161" y="688" type="curve" smooth="yes"/>
      <point x="161" y="698"/>
      <point x="152" y="703"/>
      <point x="136" y="703" type="curve" smooth="yes"/>
      <point x="108" y="703"/>
      <point x="85" y="691"/>
    </contour>
  </outline>
</glyph>
<glyph name="mu" format="1">
  <advance width="541"/>
  <unicode hex="00B5"/>
  <outline>
    <contour>
      <point x="61" y="288" type="curve" smooth="yes"/>
      <point x="61" y="195"/>
      <point x="90" y="-111"/>
      <point x="95" y="-146" type="curve"/>
      <point x="190" y="-163" type="line"/>
      <point x="175" y="0" type="line"/>
      <point x="189" y="-4"/>
      <point x="207" y="-5"/>
      <point x="222" y="-5" type="curve" smooth="yes"/>
      <point x="272" y="-5"/>
      <point x="321" y="15"/>
      <point x="355" y="37" type="curve"/>
      <point x="355" y="-3" type="line"/>
      <point x="457" y="13" type="line"/>
      <point x="457" y="509" type="line"/>
      <point x="358" y="492" type="line"/>
      <point x="358" y="168" type="line" smooth="yes"/>
      <point x="358" y="159"/>
      <point x="356" y="147"/>
      <point x="352" y="144" type="curve"/>
      <point x="336" y="125"/>
      <point x="278" y="85"/>
      <point x="223" y="85" type="curve" smooth="yes"/>
      <point x="174" y="85"/>
      <point x="156" y="134"/>
      <point x="156" y="317" type="curve" smooth="yes"/>
      <point x="156" y="393"/>
      <point x="174" y="489"/>
      <point x="177" y="510" type="curve"/>
      <point x="77" y="493" type="line"/>
      <point x="73" y="461"/>
      <point x="61" y="368"/>
    </contour>
  </outline>
</glyph>
<glyph name="ordmasculine" format="1">
  <advance width="311"/>
  <unicode hex="00BA"/>
  <outline>
    <contour>
      <point x="140" y="324" type="curve" smooth="yes"/>
      <point x="228" y="324"/>
      <point x="300" y="408"/>
      <point x="300" y="506" type="curve" smooth="yes"/>
      <point x="300" y="590"/>
      <point x="238" y="665"/>
      <point x="158" y="665" type="curve" smooth="yes"/>
      <point x="69" y="665"/>
      <point x="-3" y="582"/>
      <point x="-3" y="482" type="curve" smooth="yes"/>
      <point x="-3" y="398"/>
      <point x="54" y="324"/>
    </contour>
    <contour>
      <point x="155" y="577" type="curve" smooth="yes"/>
      <point x="186" y="577"/>
      <point x="208" y="538"/>
      <point x="208" y="502" type="curve" smooth="yes"/>
      <point x="208" y="453"/>
      <point x="175" y="411"/>
      <point x="140" y="411" type="curve" smooth="yes"/>
      <point x="111" y="411"/>
      <point x="89" y="442"/>
      <point x="89" y="482" type="curve" smooth="yes"/>
      <point x="89" y="533"/>
      <point x="119" y="577"/>
    </contour>
  </outline>
</glyph>
<glyph name="Agrave" format="1">
  <advance width="649"/>
  <unicode hex="00C0"/>
  <outline>
    <contour>
      <point x="447" y="750" type="line"/>
      <point x="364" y="700" type="line"/>
      <point x="209" y="856" type="line"/>
      <point x="308" y="912" type="line"/>
    </contour>
    <contour>
      <point x="375" y="684" type="line"/>
      <point x="585" y="45" type="line"/>
      <point x="501" y="-12" type="line"/>
      <point x="417" y="240" type="line"/>
      <point x="204" y="195" type="line"/>
      <point x="129" y="-8" type="line"/>
      <point x="42" y="36" type="line"/>
      <point x="93" y="171" type="line"/>
      <point x="70" y="168" type="line"/>
      <point x="53" y="264" type="line"/>
      <point x="133" y="279" type="line"/>
      <point x="277" y="666" type="line"/>
    </contour>
    <contour>
      <point x="244" y="303" type="line"/>
      <point x="387" y="334" type="line"/>
      <point x="325" y="518" type="line"/>
    </contour>
  </outline>
</glyph>
<glyph name="Atilde" format="1">
  <advance width="649"/>
  <unicode hex="00C3"/>
  <outline>
    <contour>
      <point x="375" y="684" type="line"/>
      <point x="277" y="666" type="line"/>
      <point x="133" y="279" type="line"/>
      <point x="53" y="264" type="line"/>
      <point x="70" y="168" type="line"/>
      <point x="93" y="171" type="line"/>
      <point x="42" y="36" type="line"/>
      <point x="129" y="-8" type="line"/>
      <point x="204" y="195" type="line"/>
      <point x="417" y="240" type="line"/>
      <point x="501" y="-12" type="line"/>
      <point x="585" y="45" type="line"/>
    </contour>
    <contour>
      <point x="244" y="303" type="line"/>
      <point x="325" y="518" type="line"/>
      <point x="387" y="334" type="line"/>
    </contour>
    <contour>
      <point x="451" y="870" type="line"/>
      <point x="437" y="816"/>
      <point x="411" y="793"/>
      <point x="390" y="793" type="curve" smooth="yes"/>
      <point x="375" y="793"/>
      <point x="364" y="807"/>
      <point x="348" y="829" type="curve" smooth="yes"/>
      <point x="326" y="860"/>
      <point x="300" y="877"/>
      <point x="261" y="877" type="curve" smooth="yes"/>
      <point x="183" y="877"/>
      <point x="143" y="809"/>
      <point x="127" y="753" type="curve"/>
      <point x="192" y="720" type="line"/>
      <point x="194" y="732"/>
      <point x="214" y="788"/>
      <point x="249" y="788" type="curve" smooth="yes"/>
      <point x="264" y="788"/>
      <point x="275" y="776"/>
      <point x="291" y="753" type="curve" smooth="yes"/>
      <point x="313" y="722"/>
      <point x="340" y="705"/>
      <point x="372" y="705" type="curve" smooth="yes"/>
      <point x="473" y="705"/>
      <point x="507" y="807"/>
      <point x="518" y="838" type="curve"/>
    </contour>
  </outline>
</glyph>
<glyph name="Adieresis" format="1">
  <advance width="649"/>
  <unicode hex="00C4"/>
  <outline>
    <contour>
      <point x="375" y="684" type="line"/>
      <point x="277" y="666" type="line"/>
      <point x="133" y="279" type="line"/>
      <point x="53" y="264" type="line"/>
      <point x="70" y="168" type="line"/>
      <point x="93" y="171" type="line"/>
      <point x="42" y="36" type="line"/>
      <point x="129" y="-8" type="line"/>
      <point x="204" y="195" type="line"/>
      <point x="417" y="240" type="line"/>
      <point x="501" y="-12" type="line"/>
      <point x="585" y="45" type="line"/>
    </contour>
    <contour>
      <point x="244" y="303" type="line"/>
      <point x="325" y="518" type="line"/>
      <point x="387" y="334" type="line"/>
    </contour>
    <contour>
      <point x="312" y="833" type="line"/>
      <point x="196" y="818" type="line"/>
      <point x="182" y="704" type="line"/>
      <point x="300" y="719" type="line"/>
    </contour>
    <contour>
      <point x="482" y="833" type="line"/>
      <point x="366" y="818" type="line"/>
      <point x="352" y="704" type="line"/>
      <point x="470" y="719" type="line"/>
    </contour>
  </outline>
</glyph>
<glyph name="Aring" format="1">
  <advance width="649"/>
  <unicode hex="00C5"/>
  <outline>
    <contour>
      <point x="314" y="702" type="curve" smooth="yes"/>
      <point x="384" y="702"/>
      <point x="462" y="744"/>
      <point x="462" y="828" type="curve" smooth="yes"/>
      <point x="462" y="887"/>
      <point x="412" y="942"/>
      <point x="333" y="942" type="curve" smooth="yes"/>
      <point x="251" y="942"/>
      <point x="185" y="886"/>
      <point x="185" y="815" type="curve" smooth="yes"/>
      <point x="185" y="752"/>
      <point x="238" y="702"/>
    </contour>
    <contour>
      <point x="330" y="857" type="curve" smooth="yes"/>
      <point x="356" y="857"/>
      <point x="378" y="843"/>
      <point x="378" y="826" type="curve" smooth="yes"/>
      <point x="378" y="803"/>
      <point x="344" y="786"/>
      <point x="316" y="786" type="curve" smooth="yes"/>
      <point x="291" y="786"/>
      <point x="271" y="798"/>
      <point x="271" y="815" type="curve" smooth="yes"/>
      <point x="271" y="842"/>
      <point x="307" y="857"/>
    </contour>
    <contour>
      <point x="375" y="684" type="line"/>
      <point x="277" y="666" type="line"/>
      <point x="133" y="279" type="line"/>
      <point x="53" y="264" type="line"/>
      <point x="70" y="168" type="line"/>
      <point x="93" y="171" type="line"/>
      <point x="42" y="36" type="line"/>
      <point x="129" y="-8" type="line"/>
      <point x="204" y="195" type="line"/>
      <point x="417" y="240" type="line"/>
      <point x="501" y="-12" type="line"/>
      <point x="585" y="45" type="line"/>
    </contour>
    <contour>
      <point x="244" y="303" type="line"/>
      <point x="325" y="518" type="line"/>
      <point x="387" y="334" type="line"/>
    </contour>
  </outline>
</glyph>
<glyph name="Ccedilla" format="1">
  <advance width="657"/>
  <unicode hex="00C7"/>
  <outline>
    <contour>
      <point x="274" y="-54" type="line"/>
      <point x="316" y="-98" type="line"/>
      <point x="321" y="-93"/>
      <point x="332" y="-90"/>
      <point x="339" y="-90" type="curve" smooth="yes"/>
      <point x="359" y="-90"/>
      <point x="371" y="-99"/>
      <point x="371" y="-115" type="curve" smooth="yes"/>
      <point x="371" y="-130"/>
      <point x="359" y="-139"/>
      <point x="343" y="-139" type="curve" smooth="yes"/>
      <point x="329" y="-139"/>
      <point x="317" y="-132"/>
      <point x="311" y="-123" type="curve"/>
      <point x="267" y="-157" type="line"/>
      <point x="290" y="-186"/>
      <point x="312" y="-196"/>
      <point x="343" y="-196" type="curve" smooth="yes"/>
      <point x="395" y="-196"/>
      <point x="438" y="-167"/>
      <point x="438" y="-115" type="curve" smooth="yes"/>
      <point x="438" y="-60"/>
      <point x="400" y="-38"/>
      <point x="347" y="-33" type="curve"/>
      <point x="348" y="0" type="line"/>
      <point x="448" y="4"/>
      <point x="540" y="60"/>
      <point x="595" y="149" type="curve"/>
      <point x="523" y="221" type="line"/>
      <point x="482" y="140"/>
      <point x="414" y="95"/>
      <point x="335" y="95" type="curve" smooth="yes"/>
      <point x="229" y="95"/>
      <point x="143" y="186"/>
      <point x="143" y="296" type="curve" smooth="yes"/>
      <point x="143" y="411"/>
      <point x="232" y="585"/>
      <point x="341" y="585" type="curve" smooth="yes"/>
      <point x="400" y="585"/>
      <point x="438" y="561"/>
      <point x="460" y="539" type="curve"/>
      <point x="460" y="502" type="line"/>
      <point x="549" y="502" type="line"/>
      <point x="549" y="665" type="line"/>
      <point x="460" y="665" type="line"/>
      <point x="460" y="651" type="line"/>
      <point x="426" y="667"/>
      <point x="386" y="681"/>
      <point x="346" y="681" type="curve" smooth="yes"/>
      <point x="167" y="681"/>
      <point x="48" y="454"/>
      <point x="48" y="294" type="curve" smooth="yes"/>
      <point x="48" y="142"/>
      <point x="156" y="22"/>
      <point x="294" y="2" type="curve"/>
    </contour>
  </outline>
</glyph>
<glyph name="Igrave" format="1">
  <advance width="463"/>
  <unicode hex="00CC"/>
  <outline>
    <contour>
      <point x="339" y="750" type="line"/>
      <point x="191" y="912" type="line"/>
      <point x="91" y="856" type="line"/>
      <point x="256" y="700" type="line"/>
    </contour>
    <contour>
      <point x="382" y="582" type="line"/>
      <point x="400" y="681" type="line"/>
      <point x="65" y="681" type="line"/>
      <point x="48" y="582" type="line"/>
      <point x="177" y="582" type="line"/>
      <point x="177" y="99" type="line"/>
      <point x="65" y="99" type="line"/>
      <point x="48" y="0" type="line"/>
      <point x="382" y="0" type="line"/>
      <point x="400" y="99" type="line"/>
      <point x="276" y="99" type="line"/>
      <point x="276" y="582" type="line"/>
    </contour>
  </outline>
</glyph>
<glyph name="Iacute" format="1">
  <advance width="463"/>
  <unicode hex="00CD"/>
  <outline>
    <contour>
      <point x="100" y="772" type="line"/>
      <point x="173" y="710" type="line"/>
      <point x="363" y="831" type="line"/>
      <point x="277" y="906" type="line"/>
    </contour>
    <contour>
      <point x="382" y="582" type="line"/>
      <point x="400" y="681" type="line"/>
      <point x="65" y="681" type="line"/>
      <point x="48" y="582" type="line"/>
      <point x="177" y="582" type="line"/>
      <point x="177" y="99" type="line"/>
      <point x="65" y="99" type="line"/>
      <point x="48" y="0" type="line"/>
      <point x="382" y="0" type="line"/>
      <point x="400" y="99" type="line"/>
      <point x="276" y="99" type="line"/>
      <point x="276" y="582" type="line"/>
    </contour>
  </outline>
</glyph>
<glyph name="Icircumflex" format="1">
  <advance width="463"/>
  <unicode hex="00CE"/>
  <outline>
    <contour>
      <point x="123" y="700" type="line"/>
      <point x="63" y="776" type="line"/>
      <point x="237" y="895" type="line"/>
      <point x="388" y="771" type="line"/>
      <point x="323" y="701" type="line"/>
      <point x="231" y="783" type="line"/>
    </contour>
    <contour>
      <point x="382" y="582" type="line"/>
      <point x="276" y="582" type="line"/>
      <point x="276" y="99" type="line"/>
      <point x="400" y="99" type="line"/>
      <point x="382" y="0" type="line"/>
      <point x="48" y="0" type="line"/>
      <point x="65" y="99" type="line"/>
      <point x="177" y="99" type="line"/>
      <point x="177" y="582" type="line"/>
      <point x="48" y="582" type="line"/>
      <point x="65" y="681" type="line"/>
      <point x="400" y="681" type="line"/>
    </contour>
  </outline>
</glyph>
<glyph name="Idieresis" format="1">
  <advance width="463"/>
  <unicode hex="00CF"/>
  <outline>
    <contour>
      <point x="209" y="833" type="line"/>
      <point x="197" y="719" type="line"/>
      <point x="79" y="704" type="line"/>
      <point x="93" y="818" type="line"/>
    </contour>
    <contour>
      <point x="379" y="833" type="line"/>
      <point x="367" y="719" type="line"/>
      <point x="249" y="704" type="line"/>
      <point x="263" y="818" type="line"/>
    </contour>
    <contour>
      <point x="382" y="582" type="line"/>
      <point x="276" y="582" type="line"/>
      <point x="276" y="99" type="line"/>
      <point x="400" y="99" type="line"/>
      <point x="382" y="0" type="line"/>
      <point x="48" y="0" type="line"/>
      <point x="65" y="99" type="line"/>
      <point x="177" y="99" type="line"/>
      <point x="177" y="582" type="line"/>
      <point x="48" y="582" type="line"/>
      <point x="65" y="681" type="line"/>
      <point x="400" y="681" type="line"/>
    </contour>
  </outline>
</glyph>
<glyph name="Ntilde" format="1">
  <advance width="641"/>
  <unicode hex="00D1"/>
  <outline>
    <contour>
      <point x="463" y="668" type="line"/>
      <point x="463" y="184" type="line"/>
      <point x="149" y="685" type="line"/>
      <point x="61" y="660" type="line"/>
      <point x="62" y="-4" type="line"/>
      <point x="158" y="15" type="line"/>
      <point x="158" y="489" type="line"/>
      <point x="465" y="-3" type="line"/>
      <point x="559" y="16" type="line"/>
      <point x="559" y="686" type="line"/>
    </contour>
    <contour>
      <point x="443" y="870" type="line"/>
      <point x="429" y="816"/>
      <point x="403" y="793"/>
      <point x="382" y="793" type="curve" smooth="yes"/>
      <point x="367" y="793"/>
      <point x="356" y="807"/>
      <point x="340" y="829" type="curve" smooth="yes"/>
      <point x="318" y="860"/>
      <point x="292" y="877"/>
      <point x="253" y="877" type="curve" smooth="yes"/>
      <point x="175" y="877"/>
      <point x="135" y="809"/>
      <point x="119" y="753" type="curve"/>
      <point x="184" y="720" type="line"/>
      <point x="186" y="732"/>
      <point x="206" y="788"/>
      <point x="241" y="788" type="curve" smooth="yes"/>
      <point x="256" y="788"/>
      <point x="267" y="776"/>
      <point x="283" y="753" type="curve" smooth="yes"/>
      <point x="305" y="722"/>
      <point x="332" y="705"/>
      <point x="364" y="705" type="curve" smooth="yes"/>
      <point x="465" y="705"/>
      <point x="499" y="807"/>
      <point x="510" y="838" type="curve"/>
    </contour>
  </outline>
</glyph>
<glyph name="Odieresis" format="1">
  <advance width="686"/>
  <unicode hex="00D6"/>
  <outline>
    <contour>
      <point x="332" y="833" type="line"/>
      <point x="216" y="818" type="line"/>
      <point x="202" y="704" type="line"/>
      <point x="320" y="719" type="line"/>
    </contour>
    <contour>
      <point x="501" y="833" type="line"/>
      <point x="385" y="818" type="line"/>
      <point x="372" y="704" type="line"/>
      <point x="489" y="719" type="line"/>
    </contour>
    <contour>
      <point x="312" y="0" type="curve" smooth="yes"/>
      <point x="470" y="0"/>
      <point x="607" y="168"/>
      <point x="607" y="367" type="curve" smooth="yes"/>
      <point x="607" y="540"/>
      <point x="498" y="684"/>
      <point x="351" y="684" type="curve" smooth="yes"/>
      <point x="194" y="684"/>
      <point x="57" y="516"/>
      <point x="57" y="317" type="curve" smooth="yes"/>
      <point x="57" y="146"/>
      <point x="163" y="0"/>
    </contour>
    <contour>
      <point x="345" y="589" type="curve" smooth="yes"/>
      <point x="442" y="589"/>
      <point x="511" y="477"/>
      <point x="511" y="363" type="curve" smooth="yes"/>
      <point x="511" y="218"/>
      <point x="415" y="95"/>
      <point x="312" y="95" type="curve" smooth="yes"/>
      <point x="220" y="95"/>
      <point x="153" y="196"/>
      <point x="153" y="317" type="curve" smooth="yes"/>
      <point x="153" y="468"/>
      <point x="242" y="589"/>
    </contour>
  </outline>
</glyph>
<glyph name="multiply" format="1">
  <advance width="380"/>
  <unicode hex="00D7"/>
  <outline>
    <contour>
      <point x="249" y="253" type="line"/>
      <point x="326" y="176" type="line"/>
      <point x="259" y="109" type="line"/>
      <point x="182" y="186" type="line"/>
      <point x="103" y="108" type="line"/>
      <point x="37" y="174" type="line"/>
      <point x="117" y="253" type="line"/>
      <point x="46" y="324" type="line"/>
      <point x="112" y="390" type="line"/>
      <point x="183" y="319" type="line"/>
      <point x="260" y="397" type="line"/>
      <point x="327" y="330" type="line"/>
    </contour>
  </outline>
</glyph>
<glyph name="Oslash" format="1">
  <advance width="686"/>
  <unicode hex="00D8"/>
  <outline>
    <contour>
      <point x="564" y="697" type="line"/>
      <point x="516" y="611" type="line"/>
      <point x="578" y="551"/>
      <point x="607" y="456"/>
      <point x="607" y="366" type="curve" smooth="yes"/>
      <point x="607" y="167"/>
      <point x="470" y="-1"/>
      <point x="312" y="-1" type="curve" smooth="yes"/>
      <point x="273" y="-1"/>
      <point x="229" y="12"/>
      <point x="195" y="33" type="curve"/>
      <point x="155" y="-39" type="line"/>
      <point x="71" y="7" type="line"/>
      <point x="123" y="100" type="line"/>
      <point x="77" y="158"/>
      <point x="57" y="230"/>
      <point x="57" y="314" type="curve" smooth="yes"/>
      <point x="57" y="514"/>
      <point x="193" y="683"/>
      <point x="351" y="683" type="curve" smooth="yes"/>
      <point x="381" y="683"/>
      <point x="411" y="677"/>
      <point x="437" y="666" type="curve"/>
      <point x="481" y="746" type="line"/>
    </contour>
    <contour>
      <point x="177" y="197" type="curve"/>
      <point x="389" y="579" type="line"/>
      <point x="375" y="585"/>
      <point x="360" y="588"/>
      <point x="345" y="588" type="curve" smooth="yes"/>
      <point x="243" y="588"/>
      <point x="153" y="467"/>
      <point x="153" y="317" type="curve" smooth="yes"/>
      <point x="153" y="274"/>
      <point x="161" y="232"/>
    </contour>
    <contour>
      <point x="312" y="94" type="curve" smooth="yes"/>
      <point x="435" y="94"/>
      <point x="511" y="245"/>
      <point x="511" y="362" type="curve" smooth="yes"/>
      <point x="511" y="416"/>
      <point x="493" y="474"/>
      <point x="465" y="517" type="curve"/>
      <point x="240" y="116" type="line"/>
      <point x="262" y="102"/>
      <point x="286" y="94"/>
    </contour>
  </outline>
</glyph>
<glyph name="Ucircumflex" format="1">
  <advance width="710"/>
  <unicode hex="00DB"/>
  <outline>
    <contour>
      <point x="244" y="690" type="line"/>
      <point x="184" y="756" type="line"/>
      <point x="357" y="895" type="line"/>
      <point x="509" y="751" type="line"/>
      <point x="444" y="691" type="line"/>
      <point x="354" y="773" type="line"/>
    </contour>
    <contour>
      <point x="343" y="0" type="curve" smooth="yes"/>
      <point x="103" y="0"/>
      <point x="63" y="194"/>
      <point x="63" y="451" type="curve" smooth="yes"/>
      <point x="63" y="516"/>
      <point x="65" y="640"/>
      <point x="66" y="668" type="curve"/>
      <point x="165" y="685" type="line"/>
      <point x="164" y="664"/>
      <point x="162" y="521"/>
      <point x="162" y="443" type="curve" smooth="yes"/>
      <point x="162" y="260"/>
      <point x="180" y="92"/>
      <point x="343" y="92" type="curve" smooth="yes"/>
      <point x="512" y="92"/>
      <point x="525" y="276"/>
      <point x="525" y="425" type="curve" smooth="yes"/>
      <point x="525" y="502"/>
      <point x="523" y="633"/>
      <point x="522" y="666" type="curve"/>
      <point x="621" y="685" type="line"/>
      <point x="622" y="662"/>
      <point x="624" y="536"/>
      <point x="624" y="467" type="curve" smooth="yes"/>
      <point x="624" y="240"/>
      <point x="603" y="0"/>
    </contour>
  </outline>
</glyph>
<glyph name="Yacute" format="1">
  <advance width="654"/>
  <unicode hex="00DD"/>
  <outline>
    <contour>
      <point x="208" y="772" type="line"/>
      <point x="281" y="710" type="line"/>
      <point x="471" y="831" type="line"/>
      <point x="385" y="906" type="line"/>
    </contour>
    <contour>
      <point x="324" y="318" type="line"/>
      <point x="114" y="677" type="line"/>
      <point x="2" y="677" type="line"/>
      <point x="266" y="223" type="line"/>
      <point x="135" y="0" type="line"/>
      <point x="248" y="0" type="line"/>
      <point x="650" y="677" type="line"/>
      <point x="537" y="677" type="line"/>
    </contour>
  </outline>
</glyph>
<glyph name="acircumflex" format="1">
  <advance width="530"/>
  <unicode hex="00E2"/>
  <outline>
    <contour>
      <point x="179" y="520" type="line"/>
      <point x="120" y="585" type="line"/>
      <point x="291" y="720" type="line"/>
      <point x="439" y="580" type="line"/>
      <point x="375" y="521" type="line"/>
      <point x="285" y="602" type="line"/>
    </contour>
    <contour>
      <point x="446" y="466" type="curve"/>
      <point x="446" y="13" type="line"/>
      <point x="350" y="-5" type="line"/>
      <point x="350" y="34" type="line"/>
      <point x="318" y="18"/>
      <point x="281" y="6"/>
      <point x="240" y="6" type="curve" smooth="yes"/>
      <point x="129" y="6"/>
      <point x="47" y="95"/>
      <point x="47" y="226" type="curve" smooth="yes"/>
      <point x="47" y="327"/>
      <point x="111" y="512"/>
      <point x="285" y="512" type="curve" smooth="yes"/>
      <point x="339" y="512"/>
      <point x="395" y="492"/>
    </contour>
    <contour>
      <point x="144" y="227" type="curve" smooth="yes"/>
      <point x="144" y="172"/>
      <point x="170" y="103"/>
      <point x="239" y="102" type="curve" smooth="yes"/>
      <point x="279" y="102"/>
      <point x="324" y="126"/>
      <point x="348" y="143" type="curve"/>
      <point x="352" y="404" type="line"/>
      <point x="335" y="412"/>
      <point x="309" y="417"/>
      <point x="290" y="417" type="curve" smooth="yes"/>
      <point x="182" y="417"/>
      <point x="144" y="296"/>
    </contour>
  </outline>
</glyph>
<glyph name="atilde" format="1">
  <advance width="539"/>
  <unicode hex="00E3"/>
  <outline>
    <contour>
      <point x="396" y="701" type="line"/>
      <point x="382" y="647"/>
      <point x="356" y="624"/>
      <point x="335" y="624" type="curve" smooth="yes"/>
      <point x="320" y="624"/>
      <point x="309" y="638"/>
      <point x="293" y="660" type="curve" smooth="yes"/>
      <point x="271" y="691"/>
      <point x="245" y="708"/>
      <point x="206" y="708" type="curve" smooth="yes"/>
      <point x="128" y="708"/>
      <point x="88" y="640"/>
      <point x="72" y="584" type="curve"/>
      <point x="137" y="551" type="line"/>
      <point x="139" y="563"/>
      <point x="159" y="619"/>
      <point x="194" y="619" type="curve" smooth="yes"/>
      <point x="209" y="619"/>
      <point x="220" y="607"/>
      <point x="236" y="584" type="curve" smooth="yes"/>
      <point x="258" y="553"/>
      <point x="285" y="536"/>
      <point x="317" y="536" type="curve" smooth="yes"/>
      <point x="418" y="536"/>
      <point x="452" y="638"/>
      <point x="463" y="669" type="curve"/>
    </contour>
    <contour>
      <point x="446" y="466" type="line"/>
      <point x="395" y="492"/>
      <point x="339" y="512"/>
      <point x="285" y="512" type="curve" smooth="yes"/>
      <point x="111" y="512"/>
      <point x="47" y="327"/>
      <point x="47" y="226" type="curve" smooth="yes"/>
      <point x="47" y="95"/>
      <point x="129" y="6"/>
      <point x="240" y="6" type="curve" smooth="yes"/>
      <point x="281" y="6"/>
      <point x="318" y="18"/>
      <point x="350" y="34" type="curve"/>
      <point x="350" y="-5" type="line"/>
      <point x="446" y="13" type="line"/>
    </contour>
    <contour>
      <point x="144" y="227" type="curve" smooth="yes"/>
      <point x="144" y="296"/>
      <point x="182" y="417"/>
      <point x="290" y="417" type="curve" smooth="yes"/>
      <point x="309" y="417"/>
      <point x="335" y="412"/>
      <point x="352" y="404" type="curve"/>
      <point x="348" y="143" type="line"/>
      <point x="324" y="126"/>
      <point x="279" y="102"/>
      <point x="239" y="102" type="curve" smooth="yes"/>
      <point x="170" y="103"/>
      <point x="144" y="172"/>
    </contour>
  </outline>
</glyph>
<glyph name="aring" format="1">
  <advance width="530"/>
  <unicode hex="00E5"/>
  <outline>
    <contour>
      <point x="264" y="542" type="curve" smooth="yes"/>
      <point x="188" y="542"/>
      <point x="135" y="592"/>
      <point x="135" y="655" type="curve" smooth="yes"/>
      <point x="135" y="726"/>
      <point x="201" y="782"/>
      <point x="283" y="782" type="curve" smooth="yes"/>
      <point x="362" y="782"/>
      <point x="412" y="727"/>
      <point x="412" y="668" type="curve" smooth="yes"/>
      <point x="412" y="584"/>
      <point x="334" y="542"/>
    </contour>
    <contour>
      <point x="280" y="697" type="curve" smooth="yes"/>
      <point x="257" y="697"/>
      <point x="221" y="682"/>
      <point x="221" y="655" type="curve" smooth="yes"/>
      <point x="221" y="638"/>
      <point x="241" y="626"/>
      <point x="266" y="626" type="curve" smooth="yes"/>
      <point x="294" y="626"/>
      <point x="328" y="643"/>
      <point x="328" y="666" type="curve" smooth="yes"/>
      <point x="328" y="683"/>
      <point x="306" y="697"/>
    </contour>
    <contour>
      <point x="446" y="466" type="curve"/>
      <point x="446" y="13" type="line"/>
      <point x="350" y="-5" type="line"/>
      <point x="350" y="34" type="line"/>
      <point x="318" y="18"/>
      <point x="281" y="6"/>
      <point x="240" y="6" type="curve" smooth="yes"/>
      <point x="129" y="6"/>
      <point x="47" y="95"/>
      <point x="47" y="226" type="curve" smooth="yes"/>
      <point x="47" y="327"/>
      <point x="111" y="512"/>
      <point x="285" y="512" type="curve" smooth="yes"/>
      <point x="339" y="512"/>
      <point x="395" y="492"/>
    </contour>
    <contour>
      <point x="144" y="227" type="curve" smooth="yes"/>
      <point x="144" y="172"/>
      <point x="170" y="103"/>
      <point x="239" y="102" type="curve" smooth="yes"/>
      <point x="279" y="102"/>
      <point x="324" y="126"/>
      <point x="348" y="143" type="curve"/>
      <point x="352" y="404" type="line"/>
      <point x="335" y="412"/>
      <point x="309" y="417"/>
      <point x="290" y="417" type="curve" smooth="yes"/>
      <point x="182" y="417"/>
      <point x="144" y="296"/>
    </contour>
  </outline>
</glyph>
<glyph name="ae" format="1">
  <advance width="890"/>
  <unicode hex="00E6"/>
  <outline>
    <contour>
      <point x="605" y="0" type="curve" smooth="yes"/>
      <point x="549" y="0"/>
      <point x="496" y="21"/>
      <point x="455" y="54" type="curve"/>
      <point x="455" y="13" type="line"/>
      <point x="358" y="-5" type="line"/>
      <point x="358" y="34" type="line"/>
      <point x="326" y="18"/>
      <point x="289" y="6"/>
      <point x="249" y="6" type="curve" smooth="yes"/>
      <point x="137" y="6"/>
      <point x="55" y="95"/>
      <point x="55" y="226" type="curve" smooth="yes"/>
      <point x="55" y="327"/>
      <point x="120" y="512"/>
      <point x="294" y="512" type="curve" smooth="yes"/>
      <point x="347" y="512"/>
      <point x="404" y="492"/>
      <point x="455" y="466" type="curve"/>
      <point x="455" y="438" type="line"/>
      <point x="490" y="475"/>
      <point x="540" y="502"/>
      <point x="605" y="502" type="curve" smooth="yes"/>
      <point x="697" y="502"/>
      <point x="774" y="426"/>
      <point x="800" y="335" type="curve"/>
      <point x="482" y="158" type="line"/>
      <point x="509" y="122"/>
      <point x="556" y="92"/>
      <point x="605" y="92" type="curve" smooth="yes"/>
      <point x="646" y="92"/>
      <point x="688" y="115"/>
      <point x="727" y="156" type="curve"/>
      <point x="794" y="93" type="line"/>
      <point x="737" y="33"/>
      <point x="669" y="0"/>
    </contour>
    <contour>
      <point x="153" y="227" type="curve" smooth="yes"/>
      <point x="153" y="172"/>
      <point x="178" y="103"/>
      <point x="247" y="102" type="curve" smooth="yes"/>
      <point x="287" y="102"/>
      <point x="333" y="126"/>
      <point x="356" y="143" type="curve"/>
      <point x="361" y="404" type="line"/>
      <point x="344" y="409"/>
      <point x="317" y="417"/>
      <point x="298" y="417" type="curve" smooth="yes"/>
      <point x="191" y="417"/>
      <point x="153" y="296"/>
    </contour>
    <contour>
      <point x="455" y="247" type="curve"/>
      <point x="680" y="375" type="line"/>
      <point x="661" y="396"/>
      <point x="632" y="410"/>
      <point x="606" y="410" type="curve" smooth="yes"/>
      <point x="516" y="410"/>
      <point x="455" y="334"/>
    </contour>
  </outline>
</glyph>
<glyph name="eacute" format="1">
  <advance width="553"/>
  <unicode hex="00E9"/>
  <outline>
    <contour>
      <point x="142" y="600" type="line"/>
      <point x="213" y="540" type="line"/>
      <point x="399" y="658" type="line"/>
      <point x="315" y="731" type="line"/>
    </contour>
    <contour>
      <point x="291" y="0" type="curve" smooth="yes"/>
      <point x="355" y="0"/>
      <point x="423" y="33"/>
      <point x="480" y="93" type="curve"/>
      <point x="413" y="156" type="line"/>
      <point x="374" y="115"/>
      <point x="332" y="92"/>
      <point x="291" y="92" type="curve" smooth="yes"/>
      <point x="242" y="92"/>
      <point x="195" y="122"/>
      <point x="168" y="158" type="curve"/>
      <point x="486" y="335" type="line"/>
      <point x="460" y="426"/>
      <point x="382" y="502"/>
      <point x="291" y="502" type="curve" smooth="yes"/>
      <point x="155" y="502"/>
      <point x="48" y="388"/>
      <point x="48" y="251" type="curve" smooth="yes"/>
      <point x="48" y="113"/>
      <point x="156" y="0"/>
    </contour>
    <contour>
      <point x="140" y="247" type="line"/>
      <point x="140" y="334"/>
      <point x="201" y="410"/>
      <point x="291" y="410" type="curve" smooth="yes"/>
      <point x="317" y="410"/>
      <point x="346" y="396"/>
      <point x="365" y="375" type="curve"/>
    </contour>
  </outline>
</glyph>
<glyph name="iacute" format="1">
  <advance width="259"/>
  <unicode hex="00ED"/>
  <outline>
    <contour>
      <point x="17" y="600" type="line"/>
      <point x="190" y="731" type="line"/>
      <point x="274" y="658" type="line"/>
      <point x="88" y="540" type="line"/>
    </contour>
    <contour>
      <point x="67" y="489" type="line"/>
      <point x="166" y="505" type="line"/>
      <point x="166" y="12" type="line"/>
      <point x="67" y="-5" type="line"/>
    </contour>
  </outline>
</glyph>
<glyph name="idieresis" format="1">
  <advance width="300"/>
  <unicode hex="00EF"/>
  <outline>
    <contour>
      <point x="133" y="672" type="line"/>
      <point x="20" y="658" type="line"/>
      <point x="6" y="546" type="line"/>
      <point x="121" y="561" type="line"/>
    </contour>
    <contour>
      <point x="298" y="672" type="line"/>
      <point x="186" y="658" type="line"/>
      <point x="172" y="546" type="line"/>
      <point x="287" y="561" type="line"/>
    </contour>
    <contour>
      <point x="93" y="489" type="line"/>
      <point x="93" y="-5" type="line"/>
      <point x="192" y="12" type="line"/>
      <point x="192" y="505" type="line"/>
    </contour>
  </outline>
</glyph>
<glyph name="ntilde" format="1">
  <advance width="562"/>
  <unicode hex="00F1"/>
  <outline>
    <contour>
      <point x="419" y="701" type="line"/>
      <point x="405" y="647"/>
      <point x="379" y="624"/>
      <point x="358" y="624" type="curve" smooth="yes"/>
      <point x="343" y="624"/>
      <point x="332" y="638"/>
      <point x="316" y="660" type="curve" smooth="yes"/>
      <point x="294" y="691"/>
      <point x="268" y="708"/>
      <point x="229" y="708" type="curve" smooth="yes"/>
      <point x="151" y="708"/>
      <point x="111" y="640"/>
      <point x="95" y="584" type="curve"/>
      <point x="160" y="551" type="line"/>
      <point x="162" y="563"/>
      <point x="182" y="619"/>
      <point x="217" y="619" type="curve" smooth="yes"/>
      <point x="232" y="619"/>
      <point x="243" y="607"/>
      <point x="259" y="584" type="curve" smooth="yes"/>
      <point x="281" y="553"/>
      <point x="308" y="536"/>
      <point x="340" y="536" type="curve" smooth="yes"/>
      <point x="441" y="536"/>
      <point x="475" y="638"/>
      <point x="486" y="669" type="curve"/>
    </contour>
    <contour>
      <point x="381" y="-5" type="line"/>
      <point x="476" y="15" type="line"/>
      <point x="475" y="127" type="line" smooth="yes"/>
      <point x="474" y="249"/>
      <point x="474" y="326"/>
      <point x="460" y="386" type="curve" smooth="yes"/>
      <point x="441" y="463"/>
      <point x="395" y="501"/>
      <point x="322" y="501" type="curve" smooth="yes"/>
      <point x="256" y="501"/>
      <point x="197" y="464"/>
      <point x="158" y="408" type="curve"/>
      <point x="158" y="507" type="line"/>
      <point x="62" y="489" type="line"/>
      <point x="62" y="-5" type="line"/>
      <point x="157" y="13" type="line"/>
      <point x="158" y="135" type="line" smooth="yes"/>
      <point x="158" y="193"/>
      <point x="178" y="266"/>
      <point x="205" y="319" type="curve"/>
      <point x="247" y="394"/>
      <point x="288" y="406"/>
      <point x="320" y="406" type="curve" smooth="yes"/>
      <point x="345" y="406"/>
      <point x="362" y="384"/>
      <point x="370" y="352" type="curve" smooth="yes"/>
      <point x="381" y="309"/>
      <point x="381" y="245"/>
      <point x="381" y="157" type="curve" smooth="yes"/>
    </contour>
  </outline>
</glyph>
<glyph name="otilde" format="1">
  <advance width="561"/>
  <unicode hex="00F5"/>
  <outline>
    <contour>
      <point x="254" y="0" type="curve" smooth="yes"/>
      <point x="137" y="0"/>
      <point x="48" y="105"/>
      <point x="48" y="232" type="curve" smooth="yes"/>
      <point x="48" y="377"/>
      <point x="155" y="500"/>
      <point x="282" y="500" type="curve" smooth="yes"/>
      <point x="399" y="500"/>
      <point x="489" y="393"/>
      <point x="489" y="268" type="curve" smooth="yes"/>
      <point x="489" y="122"/>
      <point x="382" y="0"/>
    </contour>
    <contour>
      <point x="278" y="411" type="curve" smooth="yes"/>
      <point x="206" y="411"/>
      <point x="145" y="328"/>
      <point x="145" y="234" type="curve" smooth="yes"/>
      <point x="145" y="156"/>
      <point x="189" y="89"/>
      <point x="254" y="89" type="curve" smooth="yes"/>
      <point x="325" y="89"/>
      <point x="391" y="170"/>
      <point x="391" y="264" type="curve" smooth="yes"/>
      <point x="391" y="343"/>
      <point x="341" y="411"/>
    </contour>
    <contour>
      <point x="415" y="701" type="curve"/>
      <point x="482" y="669" type="line"/>
      <point x="471" y="638"/>
      <point x="437" y="536"/>
      <point x="336" y="536" type="curve" smooth="yes"/>
      <point x="304" y="536"/>
      <point x="277" y="553"/>
      <point x="255" y="584" type="curve" smooth="yes"/>
      <point x="239" y="607"/>
      <point x="228" y="619"/>
      <point x="213" y="619" type="curve" smooth="yes"/>
      <point x="178" y="619"/>
      <point x="158" y="563"/>
      <point x="156" y="551" type="curve"/>
      <point x="91" y="584" type="line"/>
      <point x="107" y="640"/>
      <point x="147" y="708"/>
      <point x="225" y="708" type="curve" smooth="yes"/>
      <point x="264" y="708"/>
      <point x="290" y="691"/>
      <point x="312" y="660" type="curve" smooth="yes"/>
      <point x="328" y="638"/>
      <point x="339" y="624"/>
      <point x="354" y="624" type="curve" smooth="yes"/>
      <point x="375" y="624"/>
      <point x="401" y="647"/>
    </contour>
  </outline>
</glyph>
<glyph name="odieresis" format="1">
  <advance width="561"/>
  <unicode hex="00F6"/>
  <outline>
    <contour>
      <point x="272" y="672" type="line"/>
      <point x="261" y="561" type="line"/>
      <point x="146" y="546" type="line"/>
      <point x="160" y="658" type="line"/>
    </contour>
    <contour>
      <point x="438" y="672" type="line"/>
      <point x="426" y="561" type="line"/>
      <point x="312" y="546" type="line"/>
      <point x="325" y="658" type="line"/>
    </contour>
    <contour>
      <point x="254" y="0" type="curve" smooth="yes"/>
      <point x="137" y="0"/>
      <point x="48" y="105"/>
      <point x="48" y="232" type="curve" smooth="yes"/>
      <point x="48" y="377"/>
      <point x="155" y="500"/>
      <point x="282" y="500" type="curve" smooth="yes"/>
      <point x="399" y="500"/>
      <point x="489" y="393"/>
      <point x="489" y="268" type="curve" smooth="yes"/>
      <point x="489" y="122"/>
      <point x="382" y="0"/>
    </contour>
    <contour>
      <point x="278" y="411" type="curve" smooth="yes"/>
      <point x="206" y="411"/>
      <point x="145" y="328"/>
      <point x="145" y="234" type="curve" smooth="yes"/>
      <point x="145" y="156"/>
      <point x="189" y="89"/>
      <point x="254" y="89" type="curve" smooth="yes"/>
      <point x="325" y="89"/>
      <point x="391" y="170"/>
      <point x="391" y="264" type="curve" smooth="yes"/>
      <point x="391" y="343"/>
      <point x="341" y="411"/>
    </contour>
  </outline>
</glyph>
<glyph name="divide" format="1">
  <advance width="433"/>
  <unicode hex="00F7"/>
  <outline>
    <contour>
      <point x="268" y="431" type="line"/>
      <point x="170" y="419" type="line"/>
      <point x="159" y="326" type="line"/>
      <point x="258" y="336" type="line"/>
    </contour>
    <contour>
      <point x="254" y="194" type="line"/>
      <point x="156" y="182" type="line"/>
      <point x="145" y="87" type="line"/>
      <point x="244" y="99" type="line"/>
    </contour>
    <contour>
      <point x="43" y="218" type="line"/>
      <point x="353" y="218" type="line"/>
      <point x="371" y="301" type="line"/>
      <point x="61" y="301" type="line"/>
    </contour>
  </outline>
</glyph>
<glyph name="oslash" format="1">
  <advance width="561"/>
  <unicode hex="00F8"/>
  <outline>
    <contour>
      <point x="463" y="503" type="line"/>
      <point x="425" y="437" type="line"/>
      <point x="467" y="394"/>
      <point x="489" y="329"/>
      <point x="489" y="268" type="curve" smooth="yes"/>
      <point x="489" y="122"/>
      <point x="382" y="0"/>
      <point x="254" y="0" type="curve" smooth="yes"/>
      <point x="228" y="0"/>
      <point x="202" y="5"/>
      <point x="178" y="15" type="curve"/>
      <point x="146" y="-40" type="line"/>
      <point x="65" y="6" type="line"/>
      <point x="104" y="70" type="line"/>
      <point x="67" y="112"/>
      <point x="48" y="168"/>
      <point x="48" y="231" type="curve" smooth="yes"/>
      <point x="48" y="376"/>
      <point x="154" y="500"/>
      <point x="282" y="500" type="curve" smooth="yes"/>
      <point x="304" y="500"/>
      <point x="326" y="497"/>
      <point x="348" y="488" type="curve"/>
      <point x="383" y="549" type="line"/>
    </contour>
    <contour>
      <point x="157" y="163" type="curve"/>
      <point x="301" y="408" type="line"/>
      <point x="293" y="410"/>
      <point x="284" y="411"/>
      <point x="278" y="411" type="curve" smooth="yes"/>
      <point x="205" y="411"/>
      <point x="145" y="327"/>
      <point x="145" y="232" type="curve" smooth="yes"/>
      <point x="145" y="208"/>
      <point x="150" y="184"/>
    </contour>
    <contour>
      <point x="254" y="89" type="curve" smooth="yes"/>
      <point x="332" y="89"/>
      <point x="391" y="179"/>
      <point x="391" y="262" type="curve" smooth="yes"/>
      <point x="391" y="291"/>
      <point x="383" y="321"/>
      <point x="372" y="346" type="curve"/>
      <point x="224" y="94" type="line"/>
      <point x="234" y="90"/>
      <point x="243" y="89"/>
    </contour>
  </outline>
</glyph>
<glyph name="ugrave" format="1">
  <advance width="542"/>
  <unicode hex="00F9"/>
  <outline>
    <contour>
      <point x="380" y="579" type="line"/>
      <point x="236" y="737" type="line"/>
      <point x="138" y="682" type="line"/>
      <point x="299" y="530" type="line"/>
    </contour>
    <contour>
      <point x="157" y="286" type="curve" smooth="yes"/>
      <point x="157" y="359"/>
      <point x="175" y="488"/>
      <point x="178" y="509" type="curve"/>
      <point x="79" y="492" type="line"/>
      <point x="67" y="418"/>
      <point x="62" y="328"/>
      <point x="62" y="286" type="curve" smooth="yes"/>
      <point x="62" y="146"/>
      <point x="61" y="-5"/>
      <point x="223" y="-5" type="curve" smooth="yes"/>
      <point x="273" y="-5"/>
      <point x="322" y="14"/>
      <point x="356" y="36" type="curve"/>
      <point x="356" y="-4" type="line"/>
      <point x="458" y="12" type="line"/>
      <point x="458" y="508" type="line"/>
      <point x="359" y="491" type="line"/>
      <point x="359" y="167" type="line" smooth="yes"/>
      <point x="359" y="155"/>
      <point x="357" y="147"/>
      <point x="353" y="143" type="curve" smooth="yes"/>
      <point x="335" y="125"/>
      <point x="281" y="85"/>
      <point x="226" y="85" type="curve" smooth="yes"/>
      <point x="157" y="85"/>
      <point x="157" y="186"/>
    </contour>
  </outline>
</glyph>
<glyph name="yacute" format="1">
  <advance width="526"/>
  <unicode hex="00FD"/>
  <outline>
    <contour>
      <point x="134" y="600" type="line"/>
      <point x="307" y="731" type="line"/>
      <point x="392" y="658" type="line"/>
      <point x="206" y="540" type="line"/>
    </contour>
    <contour>
      <point x="404" y="507" type="line"/>
      <point x="492" y="466" type="line"/>
      <point x="188" y="-188" type="line"/>
      <point x="101" y="-147" type="line"/>
      <point x="205" y="77" type="line"/>
      <point x="12" y="463" type="line"/>
      <point x="98" y="506" type="line"/>
      <point x="256" y="190" type="line"/>
    </contour>
  </outline>
</glyph>
<glyph name="thorn" format="1">
  <advance width="554"/>
  <unicode hex="00FE"/>
  <outline>
    <contour>
      <point x="301" y="490" type="curve" smooth="yes"/>
      <point x="245" y="490"/>
      <point x="194" y="472"/>
      <point x="158" y="447" type="curve"/>
      <point x="158" y="678" type="line"/>
      <point x="62" y="660" type="line"/>
      <point x="62" y="-156" type="line"/>
      <point x="158" y="-173" type="line"/>
      <point x="158" y="15" type="line"/>
      <point x="187" y="7"/>
      <point x="225" y="0"/>
      <point x="261" y="0" type="curve" smooth="yes"/>
      <point x="475" y="0"/>
      <point x="483" y="213"/>
      <point x="483" y="266" type="curve" smooth="yes"/>
      <point x="483" y="371"/>
      <point x="439" y="490"/>
    </contour>
    <contour>
      <point x="254" y="95" type="curve" smooth="yes"/>
      <point x="217" y="95"/>
      <point x="179" y="104"/>
      <point x="158" y="111" type="curve"/>
      <point x="158" y="286" type="line" smooth="yes"/>
      <point x="158" y="346"/>
      <point x="220" y="394"/>
      <point x="304" y="394" type="curve" smooth="yes"/>
      <point x="372" y="394"/>
      <point x="389" y="313"/>
      <point x="389" y="266" type="curve" smooth="yes"/>
      <point x="389" y="164"/>
      <point x="352" y="95"/>
    </contour>
  </outline>
</glyph>
<glyph name="Abreve" format="1">
  <advance width="649"/>
  <unicode hex="0102"/>
  <outline>
    <contour>
      <point x="375" y="684" type="line"/>
      <point x="277" y="666" type="line"/>
      <point x="133" y="279" type="line"/>
      <point x="53" y="264" type="line"/>
      <point x="70" y="168" type="line"/>
      <point x="93" y="171" type="line"/>
      <point x="42" y="36" type="line"/>
      <point x="129" y="-8" type="line"/>
      <point x="204" y="195" type="line"/>
      <point x="417" y="240" type="line"/>
      <point x="501" y="-12" type="line"/>
      <point x="585" y="45" type="line"/>
    </contour>
    <contour>
      <point x="244" y="303" type="line"/>
      <point x="325" y="518" type="line"/>
      <point x="387" y="334" type="line"/>
    </contour>
    <contour>
      <point x="330" y="806" type="curve" smooth="yes"/>
      <point x="303" y="806"/>
      <point x="268" y="809"/>
      <point x="230" y="878" type="curve"/>
      <point x="170" y="817" type="line"/>
      <point x="199" y="752"/>
      <point x="262" y="718"/>
      <point x="335" y="718" type="curve" smooth="yes"/>
      <point x="402" y="718"/>
      <point x="468" y="755"/>
      <point x="491" y="822" type="curve"/>
      <point x="427" y="886" type="line"/>
      <point x="406" y="829"/>
      <point x="376" y="806"/>
    </contour>
  </outline>
</glyph>
<glyph name="aogonek" format="1">
  <advance width="536"/>
  <unicode hex="0105"/>
  <outline>
    <contour>
      <point x="350" y="18" type="line"/>
      <point x="298" y="-11"/>
      <point x="244" y="-38"/>
      <point x="244" y="-104" type="curve" smooth="yes"/>
      <point x="244" y="-163"/>
      <point x="295" y="-196"/>
      <point x="353" y="-196" type="curve" smooth="yes"/>
      <point x="408" y="-196"/>
      <point x="459" y="-164"/>
      <point x="485" y="-131" type="curve"/>
      <point x="443" y="-85" type="line"/>
      <point x="415" y="-108"/>
      <point x="394" y="-122"/>
      <point x="363" y="-122" type="curve" smooth="yes"/>
      <point x="348" y="-122"/>
      <point x="335" y="-110"/>
      <point x="335" y="-96" type="curve" smooth="yes"/>
      <point x="335" y="-70"/>
      <point x="358" y="-55"/>
      <point x="376" y="-44" type="curve" smooth="yes"/>
      <point x="446" y="0" type="line"/>
      <point x="446" y="466" type="line"/>
      <point x="395" y="492"/>
      <point x="339" y="512"/>
      <point x="285" y="512" type="curve" smooth="yes"/>
      <point x="111" y="512"/>
      <point x="47" y="327"/>
      <point x="47" y="226" type="curve" smooth="yes"/>
      <point x="47" y="95"/>
      <point x="129" y="11"/>
      <point x="240" y="11" type="curve" smooth="yes"/>
      <point x="281" y="11"/>
      <point x="318" y="23"/>
      <point x="350" y="39" type="curve"/>
    </contour>
    <contour>
      <point x="144" y="227" type="curve" smooth="yes"/>
      <point x="144" y="296"/>
      <point x="182" y="417"/>
      <point x="290" y="417" type="curve" smooth="yes"/>
      <point x="309" y="417"/>
      <point x="335" y="412"/>
      <point x="352" y="404" type="curve"/>
      <point x="348" y="143" type="line"/>
      <point x="324" y="126"/>
      <point x="279" y="102"/>
      <point x="239" y="102" type="curve" smooth="yes"/>
      <point x="170" y="103"/>
      <point x="144" y="172"/>
    </contour>
  </outline>
</glyph>
<glyph name="Ccircumflex" format="1">
  <advance width="657"/>
  <unicode hex="0108"/>
  <outline>
    <contour>
      <point x="335" y="-1" type="curve" smooth="yes"/>
      <point x="179" y="-1"/>
      <point x="48" y="127"/>
      <point x="48" y="294" type="curve" smooth="yes"/>
      <point x="48" y="454"/>
      <point x="167" y="681"/>
      <point x="346" y="681" type="curve" smooth="yes"/>
      <point x="386" y="681"/>
      <point x="426" y="667"/>
      <point x="460" y="651" type="curve"/>
      <point x="460" y="665" type="line"/>
      <point x="549" y="665" type="line"/>
      <point x="549" y="502" type="line"/>
      <point x="460" y="502" type="line"/>
      <point x="460" y="539" type="line"/>
      <point x="438" y="561"/>
      <point x="400" y="585"/>
      <point x="341" y="585" type="curve" smooth="yes"/>
      <point x="232" y="585"/>
      <point x="143" y="411"/>
      <point x="143" y="296" type="curve" smooth="yes"/>
      <point x="143" y="186"/>
      <point x="229" y="95"/>
      <point x="335" y="95" type="curve" smooth="yes"/>
      <point x="414" y="95"/>
      <point x="482" y="140"/>
      <point x="523" y="221" type="curve"/>
      <point x="595" y="149" type="line"/>
      <point x="538" y="56"/>
      <point x="440" y="-1"/>
    </contour>
    <contour>
      <point x="243" y="690" type="line"/>
      <point x="183" y="756" type="line"/>
      <point x="357" y="895" type="line"/>
      <point x="509" y="751" type="line"/>
      <point x="443" y="691" type="line"/>
      <point x="351" y="773" type="line"/>
    </contour>
  </outline>
</glyph>
<glyph name="dcaron" format="1">
  <advance width="635"/>
  <unicode hex="010F"/>
  <outline>
    <contour>
      <point x="557" y="679" type="line"/>
      <point x="472" y="592" type="line"/>
      <point x="514" y="568" type="line"/>
      <point x="465" y="482" type="line"/>
      <point x="550" y="434" type="line"/>
      <point x="646" y="624" type="line"/>
    </contour>
    <contour>
      <point x="359" y="667" type="line"/>
      <point x="355" y="479" type="line"/>
      <point x="324" y="488"/>
      <point x="290" y="496"/>
      <point x="260" y="496" type="curve" smooth="yes"/>
      <point x="66" y="496"/>
      <point x="38" y="316"/>
      <point x="38" y="228" type="curve" smooth="yes"/>
      <point x="38" y="118"/>
      <point x="94" y="5"/>
      <point x="216" y="5" type="curve" smooth="yes"/>
      <point x="273" y="5"/>
      <point x="312" y="23"/>
      <point x="346" y="47" type="curve"/>
      <point x="346" y="-5" type="line"/>
      <point x="437" y="12" type="line"/>
      <point x="452" y="684" type="line"/>
    </contour>
    <contour>
      <point x="349" y="171" type="line" smooth="yes"/>
      <point x="348" y="149"/>
      <point x="295" y="95"/>
      <point x="216" y="95" type="curve" smooth="yes"/>
      <point x="148" y="95"/>
      <point x="134" y="179"/>
      <point x="134" y="231" type="curve" smooth="yes"/>
      <point x="134" y="299"/>
      <point x="152" y="402"/>
      <point x="255" y="402" type="curve" smooth="yes"/>
      <point x="297" y="402"/>
      <point x="334" y="386"/>
      <point x="354" y="376" type="curve"/>
    </contour>
  </outline>
</glyph>
<glyph name="Dcroat" format="1">
  <advance width="702"/>
  <unicode hex="0110"/>
  <outline>
    <contour>
      <point x="115" y="7" type="line"/>
      <point x="166" y="-7"/>
      <point x="234" y="-14"/>
      <point x="270" y="-14" type="curve" smooth="yes"/>
      <point x="493" y="-14"/>
      <point x="619" y="101"/>
      <point x="619" y="304" type="curve" smooth="yes"/>
      <point x="619" y="451"/>
      <point x="542" y="567"/>
      <point x="419" y="630" type="curve"/>
      <point x="361" y="656"/>
      <point x="272" y="680"/>
      <point x="162" y="680" type="curve" smooth="yes"/>
      <point x="115" y="680" type="line"/>
      <point x="115" y="373" type="line"/>
      <point x="35" y="373" type="line"/>
      <point x="18" y="271" type="line"/>
      <point x="115" y="271" type="line"/>
    </contour>
    <contour>
      <point x="440" y="123" type="curve" smooth="yes"/>
      <point x="389" y="89"/>
      <point x="319" y="83"/>
      <point x="270" y="83" type="curve" smooth="yes"/>
      <point x="250" y="83"/>
      <point x="228" y="84"/>
      <point x="212" y="86" type="curve"/>
      <point x="212" y="271" type="line"/>
      <point x="302" y="271" type="line"/>
      <point x="319" y="373" type="line"/>
      <point x="212" y="373" type="line"/>
      <point x="212" y="583" type="line"/>
      <point x="260" y="581"/>
      <point x="318" y="566"/>
      <point x="376" y="541" type="curve"/>
      <point x="471" y="496"/>
      <point x="522" y="414"/>
      <point x="522" y="304" type="curve" smooth="yes"/>
      <point x="522" y="219"/>
      <point x="495" y="158"/>
    </contour>
  </outline>
</glyph>
<glyph name="Ecaron" format="1">
  <advance width="637"/>
  <unicode hex="011A"/>
  <outline>
    <contour>
      <point x="414" y="897" type="line"/>
      <point x="473" y="824" type="line"/>
      <point x="299" y="701" type="line"/>
      <point x="147" y="830" type="line"/>
      <point x="212" y="897" type="line"/>
      <point x="303" y="812" type="line"/>
    </contour>
    <contour>
      <point x="160" y="99" type="line"/>
      <point x="570" y="99" type="line"/>
      <point x="535" y="0" type="line"/>
      <point x="61" y="0" type="line"/>
      <point x="61" y="681" type="line"/>
      <point x="560" y="681" type="line"/>
      <point x="543" y="582" type="line"/>
      <point x="160" y="582" type="line"/>
      <point x="160" y="402" type="line"/>
      <point x="526" y="402" type="line"/>
      <point x="497" y="304" type="line"/>
      <point x="160" y="304" type="line"/>
    </contour>
  </outline>
</glyph>
<glyph name="Lacute" format="1">
  <advance width="513"/>
  <unicode hex="0139"/>
  <outline>
    <contour>
      <point x="91" y="772" type="line"/>
      <point x="164" y="710" type="line"/>
      <point x="354" y="831" type="line"/>
      <point x="268" y="906" type="line"/>
    </contour>
    <contour>
      <point x="59" y="-2" type="line"/>
      <point x="480" y="29" type="line"/>
      <point x="475" y="128" type="line"/>
      <point x="158" y="104" type="line"/>
      <point x="158" y="683" type="line"/>
      <point x="59" y="665" type="line"/>
    </contour>
  </outline>
</glyph>
<glyph name="lacute" format="1">
  <advance width="252"/>
  <unicode hex="013A"/>
  <outline>
    <contour>
      <point x="20" y="754" type="line"/>
      <point x="91" y="694" type="line"/>
      <point x="277" y="812" type="line"/>
      <point x="193" y="885" type="line"/>
    </contour>
    <contour>
      <point x="74" y="661" type="line"/>
      <point x="74" y="-5" type="line"/>
      <point x="170" y="12" type="line"/>
      <point x="170" y="679" type="line"/>
    </contour>
  </outline>
</glyph>
<glyph name="Lcaron" format="1">
  <advance width="558"/>
  <unicode hex="013D"/>
  <outline>
    <contour>
      <point x="102" y="-2" type="line"/>
      <point x="523" y="29" type="line"/>
      <point x="517" y="128" type="line"/>
      <point x="201" y="104" type="line"/>
      <point x="201" y="683" type="line"/>
      <point x="102" y="665" type="line"/>
    </contour>
    <contour>
      <point x="317" y="897" type="line"/>
      <point x="207" y="812" type="line"/>
      <point x="116" y="897" type="line"/>
      <point x="51" y="825" type="line"/>
      <point x="202" y="701" type="line"/>
      <point x="376" y="824" type="line"/>
    </contour>
  </outline>
</glyph>
<glyph name="lcaron" format="1">
  <advance width="316"/>
  <unicode hex="013E"/>
  <outline>
    <contour>
      <point x="68" y="661" type="line"/>
      <point x="159" y="679" type="line"/>
      <point x="159" y="12" type="line"/>
      <point x="68" y="-5" type="line"/>
    </contour>
    <contour>
      <point x="261" y="682" type="line"/>
      <point x="351" y="627" type="line"/>
      <point x="254" y="437" type="line"/>
      <point x="180" y="485" type="line"/>
      <point x="229" y="571" type="line"/>
      <point x="186" y="595" type="line"/>
    </contour>
  </outline>
</glyph>
<glyph name="nacute" format="1">
  <advance width="562"/>
  <unicode hex="0144"/>
  <outline>
    <contour>
      <point x="173" y="600" type="line"/>
      <point x="346" y="731" type="line"/>
      <point x="430" y="658" type="line"/>
      <point x="244" y="540" type="line"/>
    </contour>
    <contour>
      <point x="381" y="-5" type="line"/>
      <point x="381" y="157" type="line" smooth="yes"/>
      <point x="381" y="245"/>
      <point x="381" y="309"/>
      <point x="370" y="352" type="curve" smooth="yes"/>
      <point x="362" y="384"/>
      <point x="345" y="406"/>
      <point x="320" y="406" type="curve" smooth="yes"/>
      <point x="288" y="406"/>
      <point x="247" y="394"/>
      <point x="205" y="319" type="curve"/>
      <point x="178" y="266"/>
      <point x="158" y="193"/>
      <point x="158" y="135" type="curve" smooth="yes"/>
      <point x="157" y="13" type="line"/>
      <point x="62" y="-5" type="line"/>
      <point x="62" y="489" type="line"/>
      <point x="158" y="507" type="line"/>
      <point x="158" y="408" type="line"/>
      <point x="197" y="464"/>
      <point x="256" y="501"/>
      <point x="322" y="501" type="curve" smooth="yes"/>
      <point x="395" y="501"/>
      <point x="441" y="463"/>
      <point x="460" y="386" type="curve" smooth="yes"/>
      <point x="474" y="326"/>
      <point x="474" y="249"/>
      <point x="475" y="127" type="curve" smooth="yes"/>
      <point x="476" y="15" type="line"/>
    </contour>
  </outline>
</glyph>
<glyph name="Ncaron" format="1">
  <advance width="641"/>
  <unicode hex="0147"/>
  <outline>
    <contour>
      <point x="424" y="897" type="line"/>
      <point x="313" y="812" type="line"/>
      <point x="222" y="897" type="line"/>
      <point x="157" y="830" type="line"/>
      <point x="309" y="701" type="line"/>
      <point x="483" y="824" type="line"/>
    </contour>
    <contour>
      <point x="463" y="668" type="line"/>
      <point x="463" y="184" type="line"/>
      <point x="149" y="685" type="line"/>
      <point x="61" y="660" type="line"/>
      <point x="62" y="-4" type="line"/>
      <point x="158" y="15" type="line"/>
      <point x="158" y="489" type="line"/>
      <point x="465" y="-3" type="line"/>
      <point x="559" y="16" type="line"/>
      <point x="559" y="686" type="line"/>
    </contour>
  </outline>
</glyph>
<glyph name="OE" format="1">
  <advance width="1119"/>
  <unicode hex="0152"/>
  <outline>
    <contour>
      <point x="617" y="99" type="line"/>
      <point x="617" y="304" type="line"/>
      <point x="954" y="304" type="line"/>
      <point x="983" y="402" type="line"/>
      <point x="617" y="402" type="line"/>
      <point x="617" y="582" type="line"/>
      <point x="1000" y="582" type="line"/>
      <point x="1017" y="681" type="line"/>
      <point x="518" y="681" type="line"/>
      <point x="518" y="619" type="line"/>
      <point x="473" y="663"/>
      <point x="417" y="684"/>
      <point x="359" y="684" type="curve" smooth="yes"/>
      <point x="201" y="684"/>
      <point x="64" y="516"/>
      <point x="64" y="317" type="curve" smooth="yes"/>
      <point x="64" y="146"/>
      <point x="171" y="0"/>
      <point x="320" y="0" type="curve" smooth="yes"/>
      <point x="394" y="0"/>
      <point x="466" y="38"/>
      <point x="518" y="99" type="curve"/>
      <point x="518" y="0" type="line"/>
      <point x="992" y="0" type="line"/>
      <point x="1027" y="99" type="line"/>
    </contour>
    <contour>
      <point x="518" y="365" type="curve"/>
      <point x="507" y="199"/>
      <point x="419" y="95"/>
      <point x="320" y="95" type="curve" smooth="yes"/>
      <point x="227" y="95"/>
      <point x="160" y="196"/>
      <point x="160" y="317" type="curve" smooth="yes"/>
      <point x="160" y="468"/>
      <point x="250" y="589"/>
      <point x="352" y="589" type="curve" smooth="yes"/>
      <point x="448" y="589"/>
      <point x="517" y="478"/>
    </contour>
  </outline>
</glyph>
<glyph name="Racute" format="1">
  <advance width="620"/>
  <unicode hex="0154"/>
  <outline>
    <contour>
      <point x="134" y="772" type="line"/>
      <point x="207" y="710" type="line"/>
      <point x="398" y="831" type="line"/>
      <point x="311" y="906" type="line"/>
    </contour>
    <contour>
      <point x="160" y="587" type="line"/>
      <point x="175" y="587" type="line" smooth="yes"/>
      <point x="378" y="587"/>
      <point x="435" y="529"/>
      <point x="435" y="461" type="curve" smooth="yes"/>
      <point x="435" y="387"/>
      <point x="324" y="331"/>
      <point x="160" y="322" type="curve"/>
    </contour>
    <contour>
      <point x="281" y="224" type="curve" smooth="yes"/>
      <point x="325" y="202"/>
      <point x="403" y="143"/>
      <point x="484" y="-13" type="curve"/>
      <point x="560" y="52" type="line"/>
      <point x="501" y="163"/>
      <point x="435" y="233"/>
      <point x="385" y="273" type="curve"/>
      <point x="473" y="315"/>
      <point x="533" y="391"/>
      <point x="533" y="467" type="curve" smooth="yes"/>
      <point x="533" y="657"/>
      <point x="327" y="687"/>
      <point x="185" y="687" type="curve"/>
      <point x="153" y="686"/>
      <point x="99" y="683"/>
      <point x="61" y="678" type="curve"/>
      <point x="61" y="-5" type="line"/>
      <point x="159" y="12" type="line"/>
      <point x="159" y="225" type="line"/>
      <point x="185" y="229"/>
      <point x="215" y="232"/>
      <point x="232" y="232" type="curve" smooth="yes"/>
      <point x="249" y="232"/>
      <point x="269" y="230"/>
    </contour>
  </outline>
</glyph>
<glyph name="racute" format="1">
  <advance width="427"/>
  <unicode hex="0155"/>
  <outline>
    <contour>
      <point x="108" y="600" type="line"/>
      <point x="281" y="731" type="line"/>
      <point x="365" y="658" type="line"/>
      <point x="179" y="540" type="line"/>
    </contour>
    <contour>
      <point x="387" y="415" type="curve" smooth="yes"/>
      <point x="387" y="356" type="line"/>
      <point x="291" y="340" type="line"/>
      <point x="291" y="387" type="line" smooth="yes"/>
      <point x="291" y="395"/>
      <point x="286" y="407"/>
      <point x="273" y="407" type="curve" smooth="yes"/>
      <point x="218" y="407"/>
      <point x="156" y="328"/>
      <point x="156" y="252" type="curve" smooth="yes"/>
      <point x="156" y="12" type="line"/>
      <point x="59" y="-5" type="line"/>
      <point x="59" y="489" type="line"/>
      <point x="156" y="507" type="line"/>
      <point x="156" y="435" type="line"/>
      <point x="189" y="471"/>
      <point x="235" y="502"/>
      <point x="289" y="502" type="curve" smooth="yes"/>
      <point x="345" y="502"/>
      <point x="387" y="463"/>
    </contour>
  </outline>
</glyph>
<glyph name="rcaron" format="1">
  <advance width="428"/>
  <unicode hex="0159"/>
  <outline>
    <contour>
      <point x="340" y="722" type="line"/>
      <point x="231" y="639" type="line"/>
      <point x="142" y="722" type="line"/>
      <point x="79" y="657" type="line"/>
      <point x="227" y="532" type="line"/>
      <point x="397" y="652" type="line"/>
    </contour>
    <contour>
      <point x="387" y="415" type="line" smooth="yes"/>
      <point x="387" y="463"/>
      <point x="345" y="502"/>
      <point x="289" y="502" type="curve" smooth="yes"/>
      <point x="235" y="502"/>
      <point x="189" y="471"/>
      <point x="156" y="435" type="curve"/>
      <point x="156" y="507" type="line"/>
      <point x="59" y="489" type="line"/>
      <point x="59" y="-5" type="line"/>
      <point x="156" y="12" type="line"/>
      <point x="156" y="252" type="line" smooth="yes"/>
      <point x="156" y="328"/>
      <point x="218" y="407"/>
      <point x="273" y="407" type="curve" smooth="yes"/>
      <point x="286" y="407"/>
      <point x="291" y="395"/>
      <point x="291" y="387" type="curve" smooth="yes"/>
      <point x="291" y="340" type="line"/>
      <point x="387" y="356" type="line"/>
    </contour>
  </outline>
</glyph>
<glyph name="scedilla" format="1">
  <advance width="486"/>
  <unicode hex="015F"/>
  <outline>
    <contour>
      <point x="174" y="-54" type="line"/>
      <point x="194" y="4" type="line"/>
      <point x="125" y="19"/>
      <point x="62" y="71"/>
      <point x="40" y="151" type="curve"/>
      <point x="134" y="167" type="line"/>
      <point x="150" y="116"/>
      <point x="194" y="91"/>
      <point x="236" y="91" type="curve" smooth="yes"/>
      <point x="289" y="91"/>
      <point x="322" y="116"/>
      <point x="322" y="146" type="curve" smooth="yes"/>
      <point x="322" y="186"/>
      <point x="281" y="205"/>
      <point x="230" y="219" type="curve" smooth="yes"/>
      <point x="155" y="239"/>
      <point x="71" y="275"/>
      <point x="71" y="365" type="curve" smooth="yes"/>
      <point x="71" y="481"/>
      <point x="177" y="505"/>
      <point x="254" y="505" type="curve" smooth="yes"/>
      <point x="314" y="505"/>
      <point x="416" y="484"/>
      <point x="416" y="384" type="curve" smooth="yes"/>
      <point x="416" y="376"/>
      <point x="416" y="369"/>
      <point x="412" y="347" type="curve"/>
      <point x="319" y="329" type="line"/>
      <point x="326" y="349"/>
      <point x="326" y="364"/>
      <point x="326" y="372" type="curve" smooth="yes"/>
      <point x="326" y="406"/>
      <point x="286" y="417"/>
      <point x="254" y="417" type="curve" smooth="yes"/>
      <point x="187" y="416"/>
      <point x="169" y="391"/>
      <point x="169" y="366" type="curve" smooth="yes"/>
      <point x="169" y="340"/>
      <point x="197" y="326"/>
      <point x="253" y="310" type="curve" smooth="yes"/>
      <point x="364" y="279"/>
      <point x="418" y="229"/>
      <point x="418" y="155" type="curve" smooth="yes"/>
      <point x="418" y="40"/>
      <point x="310" y="4"/>
      <point x="248" y="0" type="curve"/>
      <point x="247" y="-33" type="line"/>
      <point x="300" y="-38"/>
      <point x="338" y="-60"/>
      <point x="338" y="-115" type="curve" smooth="yes"/>
      <point x="338" y="-167"/>
      <point x="295" y="-196"/>
      <point x="243" y="-196" type="curve" smooth="yes"/>
      <point x="212" y="-196"/>
      <point x="190" y="-186"/>
      <point x="167" y="-157" type="curve"/>
      <point x="211" y="-123" type="line"/>
      <point x="217" y="-132"/>
      <point x="229" y="-139"/>
      <point x="243" y="-139" type="curve" smooth="yes"/>
      <point x="259" y="-139"/>
      <point x="271" y="-130"/>
      <point x="271" y="-115" type="curve" smooth="yes"/>
      <point x="271" y="-99"/>
      <point x="259" y="-90"/>
      <point x="239" y="-90" type="curve" smooth="yes"/>
      <point x="232" y="-90"/>
      <point x="221" y="-93"/>
      <point x="216" y="-98" type="curve"/>
    </contour>
  </outline>
</glyph>
<glyph name="uni0162" format="1">
  <advance width="548"/>
  <unicode hex="0162"/>
  <outline>
    <contour>
      <point x="208" y="-5" type="line"/>
      <point x="208" y="582" type="line"/>
      <point x="9" y="582" type="line"/>
      <point x="9" y="681" type="line"/>
      <point x="522" y="681" type="line"/>
      <point x="522" y="582" type="line"/>
      <point x="308" y="582" type="line"/>
      <point x="308" y="12" type="line"/>
    </contour>
    <contour>
      <point x="259" y="-16" type="line"/>
      <point x="360" y="-62" type="line"/>
      <point x="251" y="-247" type="line"/>
      <point x="164" y="-198" type="line"/>
      <point x="215" y="-119" type="line"/>
      <point x="171" y="-95" type="line"/>
    </contour>
  </outline>
</glyph>
<glyph name="uni0163" format="1">
  <advance width="399"/>
  <unicode hex="0163"/>
  <outline>
    <contour>
      <point x="365" y="502" type="line"/>
      <point x="365" y="406" type="line"/>
      <point x="240" y="406" type="line"/>
      <point x="240" y="12" type="line"/>
      <point x="142" y="-5" type="line"/>
      <point x="142" y="406" type="line"/>
      <point x="17" y="406" type="line"/>
      <point x="17" y="502" type="line"/>
      <point x="142" y="502" type="line"/>
      <point x="142" y="644" type="line"/>
      <point x="240" y="660" type="line"/>
      <point x="240" y="502" type="line"/>
    </contour>
    <contour>
      <point x="189" y="-16" type="line"/>
      <point x="290" y="-62" type="line"/>
      <point x="181" y="-247" type="line"/>
      <point x="94" y="-198" type="line"/>
      <point x="145" y="-119" type="line"/>
      <point x="101" y="-95" type="line"/>
    </contour>
  </outline>
</glyph>
<glyph name="Tcaron" format="1">
  <advance width="548"/>
  <unicode hex="0164"/>
  <outline>
    <contour>
      <point x="374" y="897" type="line"/>
      <point x="264" y="812" type="line"/>
      <point x="173" y="897" type="line"/>
      <point x="108" y="830" type="line"/>
      <point x="259" y="701" type="line"/>
      <point x="433" y="824" type="line"/>
    </contour>
    <contour>
      <point x="208" y="-5" type="line"/>
      <point x="308" y="12" type="line"/>
      <point x="308" y="582" type="line"/>
      <point x="522" y="582" type="line"/>
      <point x="522" y="681" type="line"/>
      <point x="9" y="681" type="line"/>
      <point x="9" y="582" type="line"/>
      <point x="208" y="582" type="line"/>
    </contour>
  </outline>
</glyph>
<glyph name="Zcaron" format="1">
  <advance width="647"/>
  <unicode hex="017D"/>
  <outline>
    <contour>
      <point x="424" y="907" type="line"/>
      <point x="483" y="829" type="line"/>
      <point x="310" y="701" type="line"/>
      <point x="158" y="835" type="line"/>
      <point x="223" y="907" type="line"/>
      <point x="314" y="822" type="line"/>
    </contour>
    <contour>
      <point x="77" y="0" type="line"/>
      <point x="41" y="77" type="line"/>
      <point x="442" y="578" type="line"/>
      <point x="70" y="578" type="line"/>
      <point x="87" y="681" type="line"/>
      <point x="547" y="681" type="line"/>
      <point x="583" y="603" type="line"/>
      <point x="182" y="103" type="line"/>
      <point x="574" y="103" type="line"/>
      <point x="557" y="0" type="line"/>
    </contour>
  </outline>
</glyph>
<glyph name="breve" format="1">
  <advance width="526"/>
  <unicode hex="02D8"/>
  <outline>
    <contour>
      <point x="251" y="596" type="curve" smooth="yes"/>
      <point x="297" y="596"/>
      <point x="327" y="629"/>
      <point x="348" y="686" type="curve"/>
      <point x="412" y="622" type="line"/>
      <point x="389" y="555"/>
      <point x="323" y="508"/>
      <point x="256" y="508" type="curve" smooth="yes"/>
      <point x="183" y="508"/>
      <point x="120" y="552"/>
      <point x="91" y="617" type="curve"/>
      <point x="151" y="678" type="line"/>
      <point x="189" y="609"/>
      <point x="224" y="596"/>
    </contour>
  </outline>
</glyph>
<glyph name="ogonek" format="1">
  <advance width="526"/>
  <unicode hex="02DB"/>
  <outline>
    <contour>
      <point x="356" y="18" type="line"/>
      <point x="274" y="-34" type="line" smooth="yes"/>
      <point x="256" y="-46"/>
      <point x="233" y="-60"/>
      <point x="233" y="-86" type="curve" smooth="yes"/>
      <point x="233" y="-100"/>
      <point x="246" y="-112"/>
      <point x="261" y="-112" type="curve" smooth="yes"/>
      <point x="282" y="-112"/>
      <point x="304" y="-98"/>
      <point x="332" y="-75" type="curve"/>
      <point x="383" y="-131" type="line"/>
      <point x="357" y="-164"/>
      <point x="306" y="-196"/>
      <point x="261" y="-196" type="curve" smooth="yes"/>
      <point x="193" y="-196"/>
      <point x="142" y="-161"/>
      <point x="142" y="-94" type="curve" smooth="yes"/>
      <point x="142" y="-28"/>
      <point x="195" y="3"/>
      <point x="242" y="30" type="curve" smooth="yes"/>
      <point x="318" y="74" type="line"/>
    </contour>
  </outline>
</glyph>
<glyph name="hungarumlaut" format="1">
  <advance width="526"/>
  <unicode hex="02DD"/>
  <outline>
    <contour>
      <point x="21" y="570" type="line"/>
      <point x="193" y="711" type="line"/>
      <point x="267" y="638" type="line"/>
      <point x="92" y="510" type="line"/>
    </contour>
    <contour>
      <point x="236" y="570" type="line"/>
      <point x="409" y="711" type="line"/>
      <point x="484" y="638" type="line"/>
      <point x="298" y="510" type="line"/>
    </contour>
  </outline>
</glyph>
<glyph name="endash" format="1">
  <advance width="622"/>
  <unicode hex="2013"/>
  <outline>
    <contour>
      <point x="515" y="202" type="line"/>
      <point x="533" y="296" type="line"/>
      <point x="80" y="296" type="line"/>
      <point x="64" y="202" type="line"/>
    </contour>
  </outline>
</glyph>
<glyph name="emdash" format="1">
  <advance width="903"/>
  <unicode hex="2014"/>
  <outline>
    <contour>
      <point x="778" y="202" type="line"/>
      <point x="795" y="298" type="line"/>
      <point x="87" y="298" type="line"/>
      <point x="70" y="202" type="line"/>
    </contour>
  </outline>
</glyph>
<glyph name="quoteleft" format="1">
  <advance width="208"/>
  <unicode hex="2018"/>
  <outline>
    <contour>
      <point x="104" y="489" type="line"/>
      <point x="4" y="545" type="line"/>
      <point x="111" y="735" type="line"/>
      <point x="195" y="687" type="line"/>
      <point x="146" y="600" type="line"/>
      <point x="189" y="577" type="line"/>
    </contour>
  </outline>
</glyph>
<glyph name="bullet" format="1">
  <advance width="404"/>
  <unicode hex="2022"/>
  <outline>
    <contour>
      <point x="297" y="253" type="curve" smooth="yes"/>
      <point x="297" y="310"/>
      <point x="252" y="356"/>
      <point x="194" y="356" type="curve" smooth="yes"/>
      <point x="137" y="356"/>
      <point x="91" y="310"/>
      <point x="91" y="253" type="curve" smooth="yes"/>
      <point x="91" y="196"/>
      <point x="137" y="149"/>
      <point x="194" y="149" type="curve" smooth="yes"/>
      <point x="252" y="149"/>
      <point x="297" y="196"/>
    </contour>
  </outline>
</glyph>
<glyph name="trademark" format="1">
  <advance width="585"/>
  <unicode hex="2122"/>
  <outline>
    <contour>
      <point x="276" y="674" type="line"/>
      <point x="276" y="587" type="line"/>
      <point x="190" y="587" type="line"/>
      <point x="190" y="432" type="line"/>
      <point x="103" y="414" type="line"/>
      <point x="103" y="587" type="line"/>
      <point x="9" y="587" type="line"/>
      <point x="9" y="674" type="line"/>
    </contour>
    <contour>
      <point x="534" y="678" type="line"/>
      <point x="612" y="430" type="line"/>
      <point x="525" y="417" type="line"/>
      <point x="494" y="514" type="line"/>
      <point x="462" y="429" type="line"/>
      <point x="382" y="415" type="line"/>
      <point x="355" y="514" type="line"/>
      <point x="321" y="429" type="line"/>
      <point x="220" y="412" type="line"/>
      <point x="324" y="664" type="line"/>
      <point x="404" y="678" type="line"/>
      <point x="427" y="585" type="line"/>
      <point x="456" y="665" type="line"/>
    </contour>
  </outline>
</glyph>
